M48
METRIC,LZ,000.000
;FILE_FORMAT=3:3
;TYPE=NON_PLATED
;Layer: NPTH_Through
;EasyEDA v6.5.22, 2022-11-03 13:25:14
;daeccbeab38c4538aae3d189e396c967,14fd66e66b1542709ab820776f733a5e,10
;Gerber Generator version 0.2
;Holesize 1 = 2.101 mm
T01C2.101
;Holesize 2 = 3.400 mm
T02C3.400
;Holesize 3 = 4.000 mm
T03C4.000
%
G05
G90
T01
X024550Y057150
X013550Y057150
X043600Y057150
X032600Y057150
X062650Y057150
X051650Y057150
X081700Y057150
X070700Y057150
X100750Y057150
X089750Y057150
X119800Y057150
X108800Y057150
X176950Y057150
X165950Y057150
X196000Y057150
X185000Y057150
X215050Y057150
X204050Y057150
X234100Y057150
X223100Y057150
X253150Y057150
X242150Y057150
X272200Y057150
X261200Y057150
X024550Y095250
X013550Y095250
X043600Y095250
X032600Y095250
X062668Y095280
X051668Y095280
X081708Y095260
X070708Y095260
X100760Y095260
X089760Y095260
X119800Y095250
X108800Y095250
X176950Y095250
X165950Y095250
X196000Y095250
X185000Y095250
X215050Y095250
X204050Y095250
X234100Y095250
X223100Y095250
X253150Y095250
X242150Y095250
X272200Y095250
X261200Y095250
X024550Y076200
X013550Y076200
X043600Y076200
X032600Y076200
X062650Y076200
X051650Y076200
X081700Y076200
X070700Y076200
X100750Y076200
X089750Y076200
X119800Y076200
X108800Y076200
X176950Y076200
X165950Y076200
X196000Y076200
X185000Y076200
X215050Y076200
X204050Y076200
X234100Y076200
X223100Y076200
X253150Y076200
X242150Y076200
X272200Y076200
X261200Y076200
X024550Y038100
X013550Y038100
X043600Y038100
X032600Y038100
X062650Y038100
X051650Y038100
X081700Y038100
X070700Y038100
X100750Y038100
X089750Y038100
X119800Y038100
X108800Y038100
X176950Y038100
X165950Y038100
X196000Y038100
X185000Y038100
X215050Y038100
X204050Y038100
X234100Y038100
X223100Y038100
X253150Y038100
X242150Y038100
X272200Y038100
X261200Y038100
T02
X019050Y057150
X038100Y057150
X057150Y057150
X076200Y057150
X095250Y057150
X114300Y057150
X171450Y057150
X190500Y057150
X209550Y057150
X228600Y057150
X247650Y057150
X266700Y057150
X019050Y095250
X038100Y095250
X057168Y095280
X076208Y095260
X095260Y095260
X114300Y095250
X171450Y095250
X190500Y095250
X209550Y095250
X228600Y095250
X247650Y095250
X266700Y095250
X019050Y076200
X038100Y076200
X057150Y076200
X076200Y076200
X095250Y076200
X114300Y076200
X171450Y076200
X190500Y076200
X209550Y076200
X228600Y076200
X247650Y076200
X266700Y076200
X019050Y038100
X038100Y038100
X057150Y038100
X076200Y038100
X095250Y038100
X114300Y038100
X171450Y038100
X190500Y038100
X209550Y038100
X228600Y038100
X247650Y038100
X266700Y038100
T03
X009526Y104786
X276254Y104786
X142890Y028578
M30
