M48
METRIC,LZ,000.000
;FILE_FORMAT=3:3
;TYPE=PLATED
;Layer: PTH_Through
;EasyEDA v6.5.22, 2022-11-03 13:25:14
;daeccbeab38c4538aae3d189e396c967,14fd66e66b1542709ab820776f733a5e,10
;Gerber Generator version 0.2
;Holesize 1 = 0.915 mm
T01C0.915
%
G05
G90
T01
X019050Y051250
X024050Y053350
X038100Y051250
X043100Y053350
X057150Y051250
X062150Y053350
X076200Y051250
X081200Y053350
X095250Y051250
X100250Y053350
X114300Y051250
X119300Y053350
X171450Y051250
X176450Y053350
X190500Y051250
X195500Y053350
X209550Y051250
X214550Y053350
X228600Y051250
X233600Y053350
X247650Y051250
X252650Y053350
X266700Y051250
X271700Y053350
X019050Y089350
X024050Y091450
X038100Y089350
X043100Y091450
X057168Y089380
X062168Y091480
X076208Y089360
X081208Y091460
X095260Y089360
X100260Y091460
X114300Y089350
X119300Y091450
X171450Y089350
X176450Y091450
X190500Y089350
X195500Y091450
X209550Y089350
X214550Y091450
X228600Y089350
X233600Y091450
X247650Y089350
X252650Y091450
X266700Y089350
X271700Y091450
X019050Y070300
X024050Y072400
X038100Y070300
X043100Y072400
X057150Y070300
X062150Y072400
X076200Y070300
X081200Y072400
X095250Y070300
X100250Y072400
X114300Y070300
X119300Y072400
X171450Y070300
X176450Y072400
X190500Y070300
X195500Y072400
X209550Y070300
X214550Y072400
X228600Y070300
X233600Y072400
X247650Y070300
X252650Y072400
X266700Y070300
X271700Y072400
X019050Y032200
X024050Y034300
X038100Y032200
X043100Y034300
X057150Y032200
X062150Y034300
X076200Y032200
X081200Y034300
X095250Y032200
X100250Y034300
X114300Y032200
X119300Y034300
X171450Y032200
X176450Y034300
X190500Y032200
X195500Y034300
X209550Y032200
X214550Y034300
X228600Y032200
X233600Y034300
X247650Y032200
X252650Y034300
X266700Y032200
X271700Y034300
X135382Y102489
X135382Y099949
X135382Y094869
X135382Y092329
X135382Y089789
X135382Y087249
X135382Y084709
X135382Y082169
X135382Y079629
X135382Y077089
X135382Y074549
X150622Y074549
X150622Y077089
X150622Y079629
X150622Y082169
X150622Y084709
X150622Y087249
X150622Y089789
X150622Y092329
X150622Y094869
X150622Y097409
X150622Y099949
X150622Y102489
X135382Y097409
M30
