G04 Layer: BottomPasteMaskLayer*
G04 EasyEDA v6.5.22, 2022-11-03 13:25:14*
G04 daeccbeab38c4538aae3d189e396c967,14fd66e66b1542709ab820776f733a5e,10*
G04 Gerber Generator version 0.2*
G04 Scale: 100 percent, Rotated: No, Reflected: No *
G04 Dimensions in millimeters *
G04 leading zeros omitted , absolute positions ,4 integer and 5 decimal *
%FSLAX45Y45*%
%MOMM*%

%AMMACRO1*21,1,$1,$2,0,0,$3*%
%ADD10MACRO1,0.95X1.15X90.0000*%

%LPD*%
D10*
G01*
X2857799Y6837441D03*
G01*
X2857799Y6498960D03*
G01*
X4763000Y6837441D03*
G01*
X4763000Y6498960D03*
G01*
X6668201Y6837441D03*
G01*
X6668201Y6498960D03*
G01*
X8573399Y6837441D03*
G01*
X8573399Y6498960D03*
G01*
X10478599Y6837441D03*
G01*
X10478599Y6498960D03*
G01*
X12383800Y6837441D03*
G01*
X12383800Y6498960D03*
G01*
X18099001Y6837441D03*
G01*
X18099001Y6498960D03*
G01*
X20004199Y6837441D03*
G01*
X20004199Y6498960D03*
G01*
X21909399Y6837441D03*
G01*
X21909399Y6498960D03*
G01*
X23814600Y6837441D03*
G01*
X23814600Y6498960D03*
G01*
X25719801Y6837441D03*
G01*
X25719801Y6498960D03*
G01*
X27624999Y6837441D03*
G01*
X27624999Y6498960D03*
G01*
X2857799Y3027039D03*
G01*
X2857799Y2688559D03*
G01*
X4763000Y3027039D03*
G01*
X4763000Y2688559D03*
G01*
X6668201Y3027039D03*
G01*
X6668201Y2688559D03*
G01*
X8573399Y3027039D03*
G01*
X8573399Y2688559D03*
G01*
X10478599Y3027039D03*
G01*
X10478599Y2688559D03*
G01*
X12383800Y3027039D03*
G01*
X12383800Y2688559D03*
G01*
X18099001Y3027039D03*
G01*
X18099001Y2688559D03*
G01*
X20004199Y3027039D03*
G01*
X20004199Y2688559D03*
G01*
X21909399Y3027039D03*
G01*
X21909399Y2688559D03*
G01*
X23814600Y3027039D03*
G01*
X23814600Y2688559D03*
G01*
X25719801Y3027039D03*
G01*
X25719801Y2688559D03*
G01*
X27624999Y3027039D03*
G01*
X27624999Y2688559D03*
G01*
X18099600Y8742639D03*
G01*
X18099600Y8404158D03*
G01*
X20004199Y8742639D03*
G01*
X20004199Y8404158D03*
G01*
X21909399Y8742639D03*
G01*
X21909399Y8404158D03*
G01*
X23815200Y8742639D03*
G01*
X23815200Y8404158D03*
G01*
X25719801Y8742639D03*
G01*
X25719801Y8404158D03*
G01*
X27624999Y8742639D03*
G01*
X27624999Y8404158D03*
G01*
X2857799Y4932240D03*
G01*
X2857799Y4593760D03*
G01*
X4763000Y4932240D03*
G01*
X4763000Y4593760D03*
G01*
X6668201Y4932240D03*
G01*
X6668201Y4593760D03*
G01*
X8573399Y4932240D03*
G01*
X8573399Y4593760D03*
G01*
X10478599Y4932240D03*
G01*
X10478599Y4593760D03*
G01*
X12383800Y4932240D03*
G01*
X12383800Y4593760D03*
G01*
X18099001Y4932240D03*
G01*
X18099001Y4593760D03*
G01*
X20004199Y4932240D03*
G01*
X20004199Y4593760D03*
G01*
X21909399Y4932240D03*
G01*
X21909399Y4593760D03*
G01*
X23814600Y4932240D03*
G01*
X23814600Y4593760D03*
G01*
X25719801Y4932240D03*
G01*
X25719801Y4593760D03*
G01*
X27624999Y4932240D03*
G01*
X27624999Y4593760D03*
G01*
X12383800Y8742639D03*
G01*
X12383800Y8404158D03*
G01*
X10478599Y8742639D03*
G01*
X10478599Y8404158D03*
G01*
X8573399Y8742639D03*
G01*
X8573399Y8404158D03*
G01*
X6668201Y8742639D03*
G01*
X6668201Y8404158D03*
G01*
X4763000Y8742639D03*
G01*
X4763000Y8404158D03*
G01*
X2857799Y8742639D03*
G01*
X2857799Y8404158D03*
M02*
