G04 Layer: TopSolderMaskLayer*
G04 EasyEDA v6.5.22, 2022-11-03 13:25:14*
G04 daeccbeab38c4538aae3d189e396c967,14fd66e66b1542709ab820776f733a5e,10*
G04 Gerber Generator version 0.2*
G04 Scale: 100 percent, Rotated: No, Reflected: No *
G04 Dimensions in millimeters *
G04 leading zeros omitted , absolute positions ,4 integer and 5 decimal *
%FSLAX45Y45*%
%MOMM*%

%AMMACRO1*1,1,$1,$2,$3*1,1,$1,$4,$5*1,1,$1,0-$2,0-$3*1,1,$1,0-$4,0-$5*20,1,$1,$2,$3,$4,$5,0*20,1,$1,$4,$5,0-$2,0-$3,0*20,1,$1,0-$2,0-$3,0-$4,0-$5,0*20,1,$1,0-$4,0-$5,$2,$3,0*4,1,4,$2,$3,$4,$5,0-$2,0-$3,0-$4,0-$5,$2,$3,0*%
%ADD10C,0.1524*%
%ADD11C,1.7272*%
%ADD12MACRO1,0.2032X-0.762X0.762X0.762X0.762*%

%LPD*%
G36*
X14212925Y8857386D02*
G01*
X14200479Y8856726D01*
X14194891Y8856065D01*
X14189963Y8855202D01*
X14177721Y8852154D01*
X14171726Y8850325D01*
X14160093Y8846007D01*
X14148866Y8840876D01*
X14138046Y8834932D01*
X14127683Y8828278D01*
X14117828Y8820810D01*
X14108430Y8812682D01*
X14099590Y8803792D01*
X14095323Y8799118D01*
X14087297Y8789212D01*
X14079829Y8778697D01*
X14076273Y8773210D01*
X14069720Y8761730D01*
X14063776Y8749690D01*
X14058442Y8737041D01*
X14053769Y8723833D01*
X14050365Y8712098D01*
X14049298Y8707475D01*
X14047876Y8697823D01*
X14047216Y8685479D01*
X14047015Y8667394D01*
X14106956Y8667394D01*
X14107617Y8680500D01*
X14108328Y8686901D01*
X14109344Y8693200D01*
X14110614Y8699246D01*
X14112138Y8704935D01*
X14114068Y8711031D01*
X14118590Y8722715D01*
X14123924Y8733637D01*
X14129969Y8743797D01*
X14133271Y8748623D01*
X14140332Y8757615D01*
X14147952Y8765743D01*
X14152016Y8769502D01*
X14160500Y8776309D01*
X14164868Y8779357D01*
X14174063Y8784742D01*
X14178788Y8787079D01*
X14183613Y8789162D01*
X14188490Y8790990D01*
X14193469Y8792565D01*
X14198549Y8793886D01*
X14203680Y8794953D01*
X14208861Y8795715D01*
X14214094Y8796223D01*
X14224660Y8796375D01*
X14230045Y8796020D01*
X14240814Y8794445D01*
X14251635Y8791651D01*
X14257019Y8789771D01*
X14262354Y8787587D01*
X14272768Y8782456D01*
X14277848Y8779459D01*
X14287652Y8772753D01*
X14296948Y8765133D01*
X14305635Y8756700D01*
X14309699Y8752179D01*
X14317268Y8742629D01*
X14320723Y8737600D01*
X14326920Y8727186D01*
X14332153Y8716264D01*
X14335709Y8706307D01*
X14337080Y8701227D01*
X14338198Y8696096D01*
X14339620Y8685631D01*
X14339976Y8680297D01*
X14339874Y8669528D01*
X14338807Y8658656D01*
X14336776Y8647734D01*
X14335404Y8642248D01*
X14331950Y8631377D01*
X14327581Y8620556D01*
X14322298Y8609888D01*
X14316151Y8599373D01*
X14309140Y8589162D01*
X14301266Y8579307D01*
X14297050Y8574481D01*
X14287957Y8565134D01*
X14278101Y8556294D01*
X14269059Y8549081D01*
X14250771Y8536228D01*
X14241932Y8530590D01*
X14220748Y8518245D01*
X14197685Y8533638D01*
X14186052Y8541969D01*
X14175130Y8550402D01*
X14165021Y8558885D01*
X14155674Y8567420D01*
X14147088Y8576005D01*
X14139367Y8584590D01*
X14132407Y8593175D01*
X14126311Y8601811D01*
X14121028Y8610396D01*
X14116557Y8618982D01*
X14113001Y8627516D01*
X14111528Y8631783D01*
X14110106Y8636914D01*
X14108938Y8642502D01*
X14108023Y8648395D01*
X14107413Y8654542D01*
X14107058Y8660942D01*
X14106956Y8667394D01*
X14047015Y8667394D01*
X14047266Y8650884D01*
X14047571Y8643620D01*
X14048130Y8637066D01*
X14048892Y8631021D01*
X14049908Y8625332D01*
X14051178Y8619845D01*
X14052804Y8614359D01*
X14054785Y8608771D01*
X14059966Y8596630D01*
X14065707Y8584692D01*
X14071447Y8574532D01*
X14078051Y8564321D01*
X14085366Y8554161D01*
X14093393Y8544153D01*
X14102029Y8534298D01*
X14111224Y8524798D01*
X14120825Y8515654D01*
X14130883Y8507018D01*
X14141196Y8498890D01*
X14152118Y8491016D01*
X14159890Y8484971D01*
X14161058Y8483701D01*
X14159992Y8482482D01*
X14152676Y8476488D01*
X14143024Y8469274D01*
X14133982Y8461806D01*
X14124482Y8453272D01*
X14114932Y8444077D01*
X14105636Y8434425D01*
X14096898Y8424824D01*
X14089126Y8415477D01*
X14082572Y8406841D01*
X14076578Y8397646D01*
X14070330Y8386622D01*
X14064640Y8375243D01*
X14059662Y8363712D01*
X14055496Y8352383D01*
X14052245Y8341461D01*
X14049959Y8330793D01*
X14048282Y8318093D01*
X14047114Y8304123D01*
X14046504Y8289899D01*
X14046459Y8283702D01*
X14107820Y8283702D01*
X14108176Y8297367D01*
X14109344Y8311032D01*
X14111224Y8323580D01*
X14112443Y8329015D01*
X14113814Y8333689D01*
X14115745Y8339226D01*
X14120418Y8350097D01*
X14126057Y8360714D01*
X14129257Y8365998D01*
X14136369Y8376361D01*
X14144498Y8386521D01*
X14153692Y8396528D01*
X14163852Y8406434D01*
X14175130Y8416188D01*
X14187474Y8425891D01*
X14200936Y8435492D01*
X14212976Y8443468D01*
X14218666Y8446820D01*
X14224050Y8444026D01*
X14235226Y8437270D01*
X14247571Y8429294D01*
X14259560Y8420963D01*
X14270939Y8412378D01*
X14281708Y8403640D01*
X14291665Y8394903D01*
X14300707Y8386216D01*
X14308785Y8377783D01*
X14315643Y8369655D01*
X14321231Y8361934D01*
X14325447Y8354771D01*
X14329867Y8345119D01*
X14333219Y8335518D01*
X14334540Y8330692D01*
X14335607Y8325713D01*
X14337080Y8315350D01*
X14337639Y8304072D01*
X14337487Y8291525D01*
X14336979Y8284311D01*
X14336217Y8277199D01*
X14335099Y8270189D01*
X14333677Y8263331D01*
X14332000Y8256574D01*
X14329968Y8249970D01*
X14327682Y8243570D01*
X14325092Y8237321D01*
X14322247Y8231276D01*
X14319148Y8225434D01*
X14315795Y8219846D01*
X14312138Y8214512D01*
X14308277Y8209432D01*
X14304162Y8204657D01*
X14299844Y8200136D01*
X14295272Y8195919D01*
X14290192Y8191906D01*
X14284451Y8187944D01*
X14278203Y8184184D01*
X14271650Y8180679D01*
X14264944Y8177530D01*
X14258340Y8174837D01*
X14251940Y8172653D01*
X14245996Y8171129D01*
X14240763Y8170214D01*
X14235480Y8169605D01*
X14230096Y8169300D01*
X14219326Y8169656D01*
X14213890Y8170265D01*
X14208506Y8171129D01*
X14197736Y8173720D01*
X14192402Y8175396D01*
X14181937Y8179511D01*
X14171777Y8184591D01*
X14161973Y8190484D01*
X14152727Y8197189D01*
X14144040Y8204657D01*
X14136014Y8212836D01*
X14128800Y8221573D01*
X14125498Y8226196D01*
X14122450Y8230920D01*
X14119656Y8235746D01*
X14117116Y8240725D01*
X14112798Y8250936D01*
X14111122Y8256219D01*
X14109700Y8261553D01*
X14108887Y8266074D01*
X14108277Y8271357D01*
X14107922Y8277301D01*
X14107820Y8283702D01*
X14046459Y8283702D01*
X14046555Y8276336D01*
X14047266Y8264601D01*
X14047876Y8259724D01*
X14050213Y8247735D01*
X14051686Y8241842D01*
X14055293Y8230260D01*
X14059712Y8218982D01*
X14064945Y8208009D01*
X14070990Y8197443D01*
X14074241Y8192312D01*
X14081353Y8182356D01*
X14089227Y8172805D01*
X14097711Y8163763D01*
X14106906Y8155228D01*
X14116761Y8147253D01*
X14127175Y8139836D01*
X14138249Y8132978D01*
X14149832Y8126831D01*
X14163548Y8120532D01*
X14169948Y8117992D01*
X14176197Y8115858D01*
X14182394Y8114080D01*
X14188643Y8112658D01*
X14195044Y8111540D01*
X14201698Y8110677D01*
X14216176Y8109864D01*
X14232890Y8109966D01*
X14249704Y8110626D01*
X14260982Y8111744D01*
X14265605Y8112658D01*
X14270075Y8113826D01*
X14280337Y8117382D01*
X14291462Y8121954D01*
X14301978Y8127034D01*
X14311985Y8132622D01*
X14321434Y8138769D01*
X14330375Y8145475D01*
X14338807Y8152790D01*
X14346732Y8160664D01*
X14354149Y8169097D01*
X14361160Y8178190D01*
X14367662Y8187944D01*
X14373707Y8198256D01*
X14379346Y8209280D01*
X14384680Y8220964D01*
X14388998Y8231530D01*
X14392351Y8241487D01*
X14394891Y8251291D01*
X14396618Y8261451D01*
X14397736Y8272424D01*
X14398345Y8284667D01*
X14398498Y8298738D01*
X14398294Y8317636D01*
X14397532Y8330234D01*
X14396821Y8335314D01*
X14394484Y8345373D01*
X14390979Y8356803D01*
X14386915Y8367674D01*
X14382191Y8378190D01*
X14376806Y8388400D01*
X14373860Y8393430D01*
X14367306Y8403234D01*
X14359991Y8412886D01*
X14351812Y8422386D01*
X14342719Y8431834D01*
X14332762Y8441232D01*
X14321790Y8450681D01*
X14309801Y8460181D01*
X14280438Y8481466D01*
X14302587Y8497062D01*
X14312950Y8505190D01*
X14323110Y8514080D01*
X14332966Y8523579D01*
X14342414Y8533587D01*
X14351406Y8544001D01*
X14359737Y8554618D01*
X14367357Y8565337D01*
X14374113Y8576056D01*
X14379905Y8586622D01*
X14384934Y8597442D01*
X14389455Y8609025D01*
X14393265Y8620861D01*
X14396415Y8632901D01*
X14398853Y8645042D01*
X14400580Y8657082D01*
X14401596Y8668918D01*
X14401850Y8680500D01*
X14401698Y8686139D01*
X14400784Y8697010D01*
X14399056Y8707272D01*
X14396059Y8718956D01*
X14392046Y8730843D01*
X14387169Y8742832D01*
X14381378Y8754719D01*
X14374876Y8766302D01*
X14367713Y8777478D01*
X14359940Y8787993D01*
X14351762Y8797747D01*
X14343176Y8806434D01*
X14333474Y8814816D01*
X14322806Y8822842D01*
X14311477Y8830310D01*
X14299692Y8837117D01*
X14287652Y8843111D01*
X14275663Y8848090D01*
X14269770Y8850172D01*
X14263928Y8851950D01*
X14258645Y8853271D01*
X14252854Y8854440D01*
X14240052Y8856167D01*
X14226438Y8857183D01*
G37*
G36*
X14489176Y8853830D02*
G01*
X14481403Y8853728D01*
X14474139Y8853271D01*
X14467687Y8852408D01*
X14462455Y8851188D01*
X14455343Y8848699D01*
X14449348Y8846007D01*
X14444268Y8843010D01*
X14440052Y8839606D01*
X14436547Y8835694D01*
X14433702Y8831173D01*
X14431314Y8825941D01*
X14429384Y8819845D01*
X14427657Y8812580D01*
X14426895Y8806942D01*
X14426945Y8806078D01*
X14449094Y8806078D01*
X14449653Y8811615D01*
X14451380Y8816340D01*
X14454327Y8820251D01*
X14458594Y8823401D01*
X14464131Y8825839D01*
X14471040Y8827617D01*
X14479371Y8828684D01*
X14489176Y8829090D01*
X14501774Y8828633D01*
X14507463Y8828074D01*
X14511832Y8827363D01*
X14517420Y8825484D01*
X14522145Y8822639D01*
X14525955Y8819032D01*
X14528800Y8814816D01*
X14530527Y8810091D01*
X14531086Y8805062D01*
X14530425Y8799880D01*
X14528444Y8794699D01*
X14526666Y8791905D01*
X14524431Y8789568D01*
X14521688Y8787587D01*
X14518233Y8786012D01*
X14513966Y8784793D01*
X14508835Y8783828D01*
X14502638Y8783116D01*
X14495373Y8782608D01*
X14487804Y8782354D01*
X14480946Y8782507D01*
X14474748Y8783015D01*
X14469262Y8783980D01*
X14464487Y8785301D01*
X14460321Y8787028D01*
X14456867Y8789162D01*
X14454022Y8791702D01*
X14451838Y8794648D01*
X14450313Y8798052D01*
X14449399Y8801862D01*
X14449094Y8806078D01*
X14426945Y8806078D01*
X14427200Y8801658D01*
X14428368Y8795258D01*
X14429841Y8790228D01*
X14431822Y8785504D01*
X14434312Y8781084D01*
X14437360Y8777020D01*
X14440865Y8773312D01*
X14444827Y8769908D01*
X14449247Y8766860D01*
X14454073Y8764168D01*
X14459254Y8761933D01*
X14464842Y8760002D01*
X14470786Y8758529D01*
X14477034Y8757462D01*
X14483588Y8756802D01*
X14490395Y8756599D01*
X14497507Y8756853D01*
X14504822Y8757564D01*
X14510969Y8758478D01*
X14516709Y8759799D01*
X14522043Y8761425D01*
X14527022Y8763355D01*
X14531543Y8765590D01*
X14535657Y8768181D01*
X14539417Y8771077D01*
X14542719Y8774277D01*
X14545563Y8777782D01*
X14548002Y8781592D01*
X14550034Y8785707D01*
X14551609Y8790127D01*
X14553336Y8797188D01*
X14553793Y8803589D01*
X14552930Y8810396D01*
X14550745Y8818880D01*
X14548662Y8824518D01*
X14545970Y8829700D01*
X14542566Y8834526D01*
X14538655Y8838793D01*
X14534134Y8842603D01*
X14529155Y8845854D01*
X14523669Y8848547D01*
X14517776Y8850579D01*
X14511731Y8851900D01*
X14504669Y8852916D01*
X14497050Y8853576D01*
G37*
G36*
X14069110Y8843568D02*
G01*
X14065707Y8843467D01*
X14062963Y8843060D01*
X14061084Y8842451D01*
X14060373Y8841638D01*
X14060728Y8840673D01*
X14061744Y8839606D01*
X14063218Y8838539D01*
X14069618Y8835745D01*
X14064996Y8834374D01*
X14062557Y8833256D01*
X14061186Y8831326D01*
X14060627Y8827617D01*
X14060779Y8817203D01*
X14061033Y8814308D01*
X14061389Y8812936D01*
X14062608Y8815070D01*
X14064183Y8816187D01*
X14066519Y8816797D01*
X14072514Y8817203D01*
X14074749Y8817610D01*
X14076273Y8818270D01*
X14076832Y8819083D01*
X14076273Y8819896D01*
X14074698Y8820556D01*
X14072412Y8820962D01*
X14066367Y8821318D01*
X14064132Y8821877D01*
X14062862Y8822842D01*
X14062456Y8824214D01*
X14062862Y8825636D01*
X14064132Y8826550D01*
X14066367Y8827109D01*
X14074241Y8827820D01*
X14076578Y8829090D01*
X14076375Y8830614D01*
X14073225Y8832037D01*
X14070634Y8832900D01*
X14073225Y8833256D01*
X14075968Y8834018D01*
X14076680Y8835491D01*
X14075410Y8837269D01*
X14072209Y8838844D01*
X14067586Y8840368D01*
X14074952Y8842603D01*
X14075156Y8843111D01*
G37*
G36*
X14430552Y8742984D02*
G01*
X14430552Y8722512D01*
X14513051Y8721394D01*
X14430552Y8684869D01*
X14430552Y8654542D01*
X14551913Y8654542D01*
X14551913Y8677097D01*
X14467586Y8678214D01*
X14551863Y8715197D01*
X14551913Y8742984D01*
G37*
G36*
X14200225Y8718296D02*
G01*
X14200225Y8683345D01*
X14165275Y8683345D01*
X14165275Y8648395D01*
X14200225Y8648395D01*
X14200225Y8615476D01*
X14235176Y8615476D01*
X14235176Y8648395D01*
X14270177Y8648395D01*
X14270177Y8683345D01*
X14235176Y8683345D01*
X14235176Y8718296D01*
G37*
G36*
X14428520Y8631936D02*
G01*
X14428520Y8553754D01*
X14449094Y8553754D01*
X14449094Y8580526D01*
X14531340Y8580526D01*
X14531340Y8553754D01*
X14549882Y8553754D01*
X14549882Y8631936D01*
X14531340Y8631936D01*
X14531340Y8605164D01*
X14449094Y8605164D01*
X14449094Y8631936D01*
G37*
G36*
X14428520Y8533180D02*
G01*
X14428520Y8510574D01*
X14475256Y8510270D01*
X14502688Y8510473D01*
X14511172Y8509406D01*
X14515947Y8508492D01*
X14521738Y8507069D01*
X14525701Y8505444D01*
X14528342Y8503310D01*
X14530324Y8500262D01*
X14532203Y8495639D01*
X14533067Y8490915D01*
X14533067Y8486292D01*
X14532152Y8481872D01*
X14530425Y8477859D01*
X14527936Y8474405D01*
X14524736Y8471611D01*
X14520824Y8469680D01*
X14518640Y8469172D01*
X14510308Y8468360D01*
X14497456Y8467750D01*
X14480844Y8467445D01*
X14428520Y8467394D01*
X14428520Y8444788D01*
X14512188Y8445042D01*
X14518792Y8445449D01*
X14523618Y8446008D01*
X14527276Y8446820D01*
X14530374Y8447938D01*
X14533473Y8449411D01*
X14537791Y8452053D01*
X14541703Y8455558D01*
X14545208Y8459724D01*
X14548205Y8464448D01*
X14550644Y8469630D01*
X14552422Y8475167D01*
X14553590Y8480907D01*
X14553946Y8486800D01*
X14553336Y8494268D01*
X14551558Y8501481D01*
X14548815Y8508339D01*
X14545106Y8514689D01*
X14540636Y8520277D01*
X14535454Y8524951D01*
X14529765Y8528608D01*
X14523567Y8531047D01*
X14521129Y8531504D01*
X14511832Y8532215D01*
X14497913Y8532825D01*
X14481149Y8533130D01*
G37*
G36*
X14487702Y8429294D02*
G01*
X14481505Y8429142D01*
X14474799Y8428329D01*
X14467433Y8426907D01*
X14460778Y8424926D01*
X14454835Y8422436D01*
X14449551Y8419338D01*
X14444929Y8415578D01*
X14440865Y8411260D01*
X14437410Y8406282D01*
X14434515Y8400592D01*
X14432534Y8394903D01*
X14431060Y8387588D01*
X14429994Y8377732D01*
X14428976Y8360460D01*
X14449094Y8360460D01*
X14449094Y8370824D01*
X14449348Y8376462D01*
X14450212Y8381492D01*
X14451685Y8386013D01*
X14453717Y8389975D01*
X14456410Y8393379D01*
X14459661Y8396274D01*
X14463623Y8398611D01*
X14468195Y8400491D01*
X14473478Y8401862D01*
X14479422Y8402726D01*
X14486077Y8403082D01*
X14493443Y8403031D01*
X14501723Y8402472D01*
X14508073Y8401558D01*
X14513001Y8400034D01*
X14517268Y8397900D01*
X14522805Y8393531D01*
X14526666Y8388045D01*
X14529257Y8380780D01*
X14530832Y8371230D01*
X14531949Y8360460D01*
X14428976Y8360460D01*
X14427860Y8337803D01*
X14552523Y8337803D01*
X14551406Y8362238D01*
X14550644Y8374481D01*
X14549577Y8383625D01*
X14548002Y8390686D01*
X14545868Y8396681D01*
X14542668Y8402980D01*
X14538909Y8408568D01*
X14534692Y8413496D01*
X14529917Y8417712D01*
X14524685Y8421217D01*
X14519046Y8424011D01*
X14512899Y8426043D01*
X14506346Y8427313D01*
X14495322Y8428685D01*
G37*
G36*
X14204340Y8356346D02*
G01*
X14204340Y8232902D01*
X14231061Y8232902D01*
X14231061Y8356346D01*
G37*
G36*
X14550491Y8321446D02*
G01*
X14547900Y8321090D01*
X14542109Y8319058D01*
X14533981Y8315604D01*
X14524329Y8311134D01*
X14514626Y8306257D01*
X14506244Y8301736D01*
X14500098Y8297976D01*
X14497100Y8295589D01*
X14495018Y8293201D01*
X14494256Y8292693D01*
X14493849Y8292744D01*
X14490192Y8299703D01*
X14487093Y8304479D01*
X14483232Y8308340D01*
X14478762Y8311388D01*
X14473834Y8313521D01*
X14468551Y8314791D01*
X14463115Y8315198D01*
X14457680Y8314740D01*
X14452346Y8313420D01*
X14447266Y8311235D01*
X14442643Y8308187D01*
X14438630Y8304225D01*
X14435277Y8299450D01*
X14432889Y8294268D01*
X14431416Y8287969D01*
X14430603Y8278418D01*
X14430058Y8259673D01*
X14448586Y8259673D01*
X14450212Y8277098D01*
X14451279Y8281263D01*
X14452904Y8284362D01*
X14455190Y8286750D01*
X14459051Y8289086D01*
X14463420Y8290306D01*
X14468043Y8290356D01*
X14472666Y8289239D01*
X14476222Y8286445D01*
X14479168Y8281416D01*
X14481251Y8275015D01*
X14482013Y8268004D01*
X14482013Y8259673D01*
X14430058Y8259673D01*
X14429536Y8236000D01*
X14551913Y8234934D01*
X14551913Y8259673D01*
X14500047Y8259673D01*
X14501418Y8265312D01*
X14502384Y8268309D01*
X14503704Y8270951D01*
X14505584Y8273338D01*
X14508276Y8275675D01*
X14511883Y8278114D01*
X14516658Y8280704D01*
X14530324Y8287054D01*
X14550898Y8296148D01*
X14551609Y8312759D01*
X14551456Y8316874D01*
X14551101Y8319922D01*
G37*
G36*
X14550390Y8222437D02*
G01*
X14489684Y8204504D01*
X14430552Y8186724D01*
X14430552Y8169198D01*
X14457324Y8169198D01*
X14459153Y8170113D01*
X14471040Y8174126D01*
X14487702Y8179003D01*
X14501571Y8182660D01*
X14505127Y8183321D01*
X14507006Y8182965D01*
X14508073Y8180933D01*
X14508581Y8176564D01*
X14508734Y8168944D01*
X14508632Y8160715D01*
X14508073Y8156448D01*
X14506701Y8155127D01*
X14504111Y8155482D01*
X14470684Y8164626D01*
X14458238Y8168640D01*
X14457324Y8169198D01*
X14430552Y8169198D01*
X14430552Y8153552D01*
X14549374Y8118348D01*
X14550542Y8118551D01*
X14551355Y8120380D01*
X14551761Y8123986D01*
X14551913Y8141766D01*
X14527225Y8148624D01*
X14527225Y8189518D01*
X14551913Y8196427D01*
X14551812Y8214614D01*
X14551456Y8218728D01*
X14550999Y8221472D01*
G37*
D10*
X13919200Y8040115D02*
G01*
X13919200Y7943087D01*
X13919200Y8040115D02*
G01*
X13960856Y8040115D01*
X13974572Y8035289D01*
X13979143Y8030718D01*
X13983970Y8021573D01*
X13983970Y8007604D01*
X13979143Y7998460D01*
X13974572Y7993887D01*
X13960856Y7989315D01*
X13919200Y7989315D01*
X14014450Y8040115D02*
G01*
X14014450Y7943087D01*
X14014450Y8040115D02*
G01*
X14055852Y8040115D01*
X14069822Y8035289D01*
X14074393Y8030718D01*
X14078966Y8021573D01*
X14078966Y8012429D01*
X14074393Y8003031D01*
X14069822Y7998460D01*
X14055852Y7993887D01*
X14014450Y7993887D01*
X14046708Y7993887D02*
G01*
X14078966Y7943087D01*
X14137131Y8040115D02*
G01*
X14127988Y8035289D01*
X14118590Y8026145D01*
X14114018Y8017002D01*
X14109445Y8003031D01*
X14109445Y7979918D01*
X14114018Y7966202D01*
X14118590Y7956804D01*
X14127988Y7947660D01*
X14137131Y7943087D01*
X14155674Y7943087D01*
X14164818Y7947660D01*
X14174216Y7956804D01*
X14178788Y7966202D01*
X14183359Y7979918D01*
X14183359Y8003031D01*
X14178788Y8017002D01*
X14174216Y8026145D01*
X14164818Y8035289D01*
X14155674Y8040115D01*
X14137131Y8040115D01*
X14284959Y8040115D02*
G01*
X14284959Y7943087D01*
X14284959Y8040115D02*
G01*
X14321790Y7943087D01*
X14358874Y8040115D02*
G01*
X14321790Y7943087D01*
X14358874Y8040115D02*
G01*
X14358874Y7943087D01*
X14389354Y8040115D02*
G01*
X14389354Y7943087D01*
X14489175Y8017002D02*
G01*
X14484350Y8026145D01*
X14475206Y8035289D01*
X14466061Y8040115D01*
X14447520Y8040115D01*
X14438375Y8035289D01*
X14428977Y8026145D01*
X14424406Y8017002D01*
X14419834Y8003031D01*
X14419834Y7979918D01*
X14424406Y7966202D01*
X14428977Y7956804D01*
X14438375Y7947660D01*
X14447520Y7943087D01*
X14466061Y7943087D01*
X14475206Y7947660D01*
X14484350Y7956804D01*
X14489175Y7966202D01*
X14519656Y8040115D02*
G01*
X14519656Y7943087D01*
X14519656Y8040115D02*
G01*
X14561058Y8040115D01*
X14575027Y8035289D01*
X14579600Y8030718D01*
X14584172Y8021573D01*
X14584172Y8012429D01*
X14579600Y8003031D01*
X14575027Y7998460D01*
X14561058Y7993887D01*
X14519656Y7993887D01*
X14551913Y7993887D02*
G01*
X14584172Y7943087D01*
X14642338Y8040115D02*
G01*
X14633193Y8035289D01*
X14624050Y8026145D01*
X14619224Y8017002D01*
X14614652Y8003031D01*
X14614652Y7979918D01*
X14619224Y7966202D01*
X14624050Y7956804D01*
X14633193Y7947660D01*
X14642338Y7943087D01*
X14660879Y7943087D01*
X14670024Y7947660D01*
X14679422Y7956804D01*
X14683993Y7966202D01*
X14688566Y7979918D01*
X14688566Y8003031D01*
X14683993Y8017002D01*
X14679422Y8026145D01*
X14670024Y8035289D01*
X14660879Y8040115D01*
X14642338Y8040115D01*
X14129258Y9017000D02*
G01*
X14206981Y9046463D01*
X14129258Y9076181D02*
G01*
X14206981Y9046463D01*
X14129258Y9100565D02*
G01*
X14206981Y9100565D01*
X14129258Y9124950D02*
G01*
X14206981Y9124950D01*
X14129258Y9124950D02*
G01*
X14206981Y9176512D01*
X14129258Y9176512D02*
G01*
X14206981Y9176512D01*
X14162531Y9204705D02*
G01*
X14166341Y9200895D01*
X14169897Y9204705D01*
X14166341Y9208262D01*
X14162531Y9204705D01*
X14188440Y9204705D02*
G01*
X14191995Y9200895D01*
X14195806Y9204705D01*
X14191995Y9208262D01*
X14188440Y9204705D01*
X14140434Y9333992D02*
G01*
X14133068Y9330181D01*
X14129258Y9319260D01*
X14129258Y9311894D01*
X14133068Y9300718D01*
X14143990Y9293352D01*
X14162531Y9289542D01*
X14181074Y9289542D01*
X14195806Y9293352D01*
X14203172Y9300718D01*
X14206981Y9311894D01*
X14206981Y9315450D01*
X14203172Y9326626D01*
X14195806Y9333992D01*
X14184629Y9337802D01*
X14181074Y9337802D01*
X14169897Y9333992D01*
X14162531Y9326626D01*
X14158722Y9315450D01*
X14158722Y9311894D01*
X14162531Y9300718D01*
X14169897Y9293352D01*
X14181074Y9289542D01*
X14173708Y9362186D02*
G01*
X14173708Y9428479D01*
X14143990Y9452863D02*
G01*
X14140434Y9460229D01*
X14129258Y9471405D01*
X14206981Y9471405D01*
X14147800Y9499600D02*
G01*
X14143990Y9499600D01*
X14136624Y9503155D01*
X14133068Y9506965D01*
X14129258Y9514331D01*
X14129258Y9529063D01*
X14133068Y9536429D01*
X14136624Y9540239D01*
X14143990Y9543795D01*
X14151356Y9543795D01*
X14158722Y9540239D01*
X14169897Y9532874D01*
X14206981Y9495789D01*
X14206981Y9547605D01*
X14129258Y9571989D02*
G01*
X14206981Y9601454D01*
X14129258Y9630918D02*
G01*
X14206981Y9601454D01*
X14256258Y9024365D02*
G01*
X14256258Y9065005D01*
X14285722Y9042908D01*
X14285722Y9053829D01*
X14289531Y9061450D01*
X14293341Y9065005D01*
X14304263Y9068815D01*
X14311629Y9068815D01*
X14322806Y9065005D01*
X14330172Y9057639D01*
X14333981Y9046463D01*
X14333981Y9035542D01*
X14330172Y9024365D01*
X14326361Y9020810D01*
X14318995Y9017000D01*
X14256258Y9093200D02*
G01*
X14333981Y9122663D01*
X14256258Y9152128D02*
G01*
X14333981Y9122663D01*
X14256258Y9183878D02*
G01*
X14256258Y9224518D01*
X14285722Y9202420D01*
X14285722Y9213595D01*
X14289531Y9220962D01*
X14293341Y9224518D01*
X14304263Y9228328D01*
X14311629Y9228328D01*
X14322806Y9224518D01*
X14330172Y9217152D01*
X14333981Y9206229D01*
X14333981Y9195054D01*
X14330172Y9183878D01*
X14326361Y9180321D01*
X14318995Y9176512D01*
X14282166Y9309608D02*
G01*
X14333981Y9309608D01*
X14296897Y9309608D02*
G01*
X14285722Y9320784D01*
X14282166Y9328150D01*
X14282166Y9339071D01*
X14285722Y9346437D01*
X14296897Y9350247D01*
X14333981Y9350247D01*
X14296897Y9350247D02*
G01*
X14285722Y9361424D01*
X14282166Y9368789D01*
X14282166Y9379712D01*
X14285722Y9387078D01*
X14296897Y9390887D01*
X14333981Y9390887D01*
X14282166Y9459721D02*
G01*
X14333981Y9459721D01*
X14293341Y9459721D02*
G01*
X14285722Y9452102D01*
X14282166Y9444736D01*
X14282166Y9433813D01*
X14285722Y9426447D01*
X14293341Y9419081D01*
X14304263Y9415271D01*
X14311629Y9415271D01*
X14322806Y9419081D01*
X14330172Y9426447D01*
X14333981Y9433813D01*
X14333981Y9444736D01*
X14330172Y9452102D01*
X14322806Y9459721D01*
X14282166Y9484105D02*
G01*
X14333981Y9524745D01*
X14282166Y9524745D02*
G01*
X14333981Y9484105D01*
X14289531Y9552686D02*
G01*
X14293341Y9549129D01*
X14296897Y9552686D01*
X14293341Y9556495D01*
X14289531Y9552686D01*
X14315440Y9552686D02*
G01*
X14318995Y9549129D01*
X14322806Y9552686D01*
X14318995Y9556495D01*
X14315440Y9552686D01*
X14256258Y9681971D02*
G01*
X14256258Y9645142D01*
X14289531Y9641331D01*
X14285722Y9645142D01*
X14282166Y9656063D01*
X14282166Y9667239D01*
X14285722Y9678415D01*
X14293341Y9685781D01*
X14304263Y9689337D01*
X14311629Y9689337D01*
X14322806Y9685781D01*
X14330172Y9678415D01*
X14333981Y9667239D01*
X14333981Y9656063D01*
X14330172Y9645142D01*
X14326361Y9641331D01*
X14318995Y9637776D01*
X14256258Y9736074D02*
G01*
X14260068Y9724897D01*
X14270990Y9717531D01*
X14289531Y9713721D01*
X14300708Y9713721D01*
X14318995Y9717531D01*
X14330172Y9724897D01*
X14333981Y9736074D01*
X14333981Y9743439D01*
X14330172Y9754362D01*
X14318995Y9761728D01*
X14300708Y9765537D01*
X14289531Y9765537D01*
X14270990Y9761728D01*
X14260068Y9754362D01*
X14256258Y9743439D01*
X14256258Y9736074D01*
X14282166Y9789921D02*
G01*
X14333981Y9789921D01*
X14296897Y9789921D02*
G01*
X14285722Y9801097D01*
X14282166Y9808463D01*
X14282166Y9819386D01*
X14285722Y9826752D01*
X14296897Y9830562D01*
X14333981Y9830562D01*
X14296897Y9830562D02*
G01*
X14285722Y9841737D01*
X14282166Y9849104D01*
X14282166Y9860026D01*
X14285722Y9867392D01*
X14296897Y9871202D01*
X14333981Y9871202D01*
X14256258Y9925050D02*
G01*
X14333981Y9895586D01*
X14256258Y9925050D02*
G01*
X14333981Y9954768D01*
X14308074Y9906762D02*
G01*
X14308074Y9943592D01*
X14570156Y9199349D02*
G01*
X14570156Y9162265D01*
X14603430Y9158709D01*
X14599620Y9162265D01*
X14596064Y9173441D01*
X14596064Y9184363D01*
X14599620Y9195539D01*
X14607240Y9202905D01*
X14618162Y9206715D01*
X14625528Y9206715D01*
X14636704Y9202905D01*
X14644070Y9195539D01*
X14647880Y9184363D01*
X14647880Y9173441D01*
X14644070Y9162265D01*
X14640260Y9158709D01*
X14632894Y9154899D01*
X14570156Y9231099D02*
G01*
X14647880Y9260563D01*
X14570156Y9290027D02*
G01*
X14647880Y9260563D01*
X14596064Y9371307D02*
G01*
X14647880Y9371307D01*
X14610796Y9371307D02*
G01*
X14599620Y9382483D01*
X14596064Y9389849D01*
X14596064Y9401025D01*
X14599620Y9408391D01*
X14610796Y9411947D01*
X14647880Y9411947D01*
X14610796Y9411947D02*
G01*
X14599620Y9423123D01*
X14596064Y9430489D01*
X14596064Y9441665D01*
X14599620Y9449031D01*
X14610796Y9452587D01*
X14647880Y9452587D01*
X14596064Y9521421D02*
G01*
X14647880Y9521421D01*
X14607240Y9521421D02*
G01*
X14599620Y9514055D01*
X14596064Y9506689D01*
X14596064Y9495513D01*
X14599620Y9488147D01*
X14607240Y9480781D01*
X14618162Y9476971D01*
X14625528Y9476971D01*
X14636704Y9480781D01*
X14644070Y9488147D01*
X14647880Y9495513D01*
X14647880Y9506689D01*
X14644070Y9514055D01*
X14636704Y9521421D01*
X14596064Y9545805D02*
G01*
X14647880Y9586445D01*
X14596064Y9586445D02*
G01*
X14647880Y9545805D01*
X14603430Y9614385D02*
G01*
X14607240Y9610829D01*
X14610796Y9614385D01*
X14607240Y9618195D01*
X14603430Y9614385D01*
X14629338Y9614385D02*
G01*
X14632894Y9610829D01*
X14636704Y9614385D01*
X14632894Y9618195D01*
X14629338Y9614385D01*
X14584888Y9699475D02*
G01*
X14581332Y9706841D01*
X14570156Y9718017D01*
X14647880Y9718017D01*
X14570156Y9764499D02*
G01*
X14573966Y9753323D01*
X14584888Y9745957D01*
X14603430Y9742401D01*
X14614606Y9742401D01*
X14632894Y9745957D01*
X14644070Y9753323D01*
X14647880Y9764499D01*
X14647880Y9771865D01*
X14644070Y9783041D01*
X14632894Y9790407D01*
X14614606Y9793963D01*
X14603430Y9793963D01*
X14584888Y9790407D01*
X14573966Y9783041D01*
X14570156Y9771865D01*
X14570156Y9764499D01*
X14570156Y9840699D02*
G01*
X14573966Y9829523D01*
X14584888Y9822157D01*
X14603430Y9818347D01*
X14614606Y9818347D01*
X14632894Y9822157D01*
X14644070Y9829523D01*
X14647880Y9840699D01*
X14647880Y9848065D01*
X14644070Y9858987D01*
X14632894Y9866353D01*
X14614606Y9870163D01*
X14603430Y9870163D01*
X14584888Y9866353D01*
X14573966Y9858987D01*
X14570156Y9848065D01*
X14570156Y9840699D01*
X14570156Y9916645D02*
G01*
X14573966Y9905723D01*
X14584888Y9898357D01*
X14603430Y9894547D01*
X14614606Y9894547D01*
X14632894Y9898357D01*
X14644070Y9905723D01*
X14647880Y9916645D01*
X14647880Y9924011D01*
X14644070Y9935187D01*
X14632894Y9942553D01*
X14614606Y9946363D01*
X14603430Y9946363D01*
X14584888Y9942553D01*
X14573966Y9935187D01*
X14570156Y9924011D01*
X14570156Y9916645D01*
X14596064Y9970747D02*
G01*
X14647880Y9970747D01*
X14610796Y9970747D02*
G01*
X14599620Y9981669D01*
X14596064Y9989035D01*
X14596064Y10000211D01*
X14599620Y10007577D01*
X14610796Y10011387D01*
X14647880Y10011387D01*
X14610796Y10011387D02*
G01*
X14599620Y10022309D01*
X14596064Y10029675D01*
X14596064Y10040851D01*
X14599620Y10048217D01*
X14610796Y10052027D01*
X14647880Y10052027D01*
X14570156Y10105875D02*
G01*
X14647880Y10076411D01*
X14570156Y10105875D02*
G01*
X14647880Y10135339D01*
X14621972Y10087333D02*
G01*
X14621972Y10124417D01*
D11*
G01*
X1905000Y5125008D03*
G01*
X2404999Y5334990D03*
G01*
X3810000Y5125008D03*
G01*
X4309999Y5334990D03*
G01*
X5715000Y5125008D03*
G01*
X6214999Y5334990D03*
G01*
X7620000Y5125008D03*
G01*
X8119999Y5334990D03*
G01*
X9525000Y5125008D03*
G01*
X10024999Y5334990D03*
G01*
X11430000Y5125008D03*
G01*
X11929999Y5334990D03*
G01*
X17145000Y5125008D03*
G01*
X17644999Y5334990D03*
G01*
X19050000Y5125008D03*
G01*
X19549999Y5334990D03*
G01*
X20955000Y5125008D03*
G01*
X21454999Y5334990D03*
G01*
X22860000Y5125008D03*
G01*
X23359999Y5334990D03*
G01*
X24765000Y5125008D03*
G01*
X25264999Y5334990D03*
G01*
X26670000Y5125008D03*
G01*
X27169999Y5334990D03*
G01*
X1905000Y8935008D03*
G01*
X2404999Y9144990D03*
G01*
X3810000Y8935008D03*
G01*
X4309999Y9144990D03*
G01*
X5716803Y8938005D03*
G01*
X6216802Y9147987D03*
G01*
X7620812Y8935999D03*
G01*
X8120811Y9145981D03*
G01*
X9525990Y8935999D03*
G01*
X10025989Y9145981D03*
G01*
X11430000Y8935008D03*
G01*
X11929999Y9144990D03*
G01*
X17145000Y8935008D03*
G01*
X17644999Y9144990D03*
G01*
X19050000Y8935008D03*
G01*
X19549999Y9144990D03*
G01*
X20955000Y8935008D03*
G01*
X21454999Y9144990D03*
G01*
X22860000Y8935008D03*
G01*
X23359999Y9144990D03*
G01*
X24765000Y8935008D03*
G01*
X25264999Y9144990D03*
G01*
X26670000Y8935008D03*
G01*
X27169999Y9144990D03*
G01*
X1905000Y7030008D03*
G01*
X2404999Y7239990D03*
G01*
X3810000Y7030008D03*
G01*
X4309999Y7239990D03*
G01*
X5715000Y7030008D03*
G01*
X6214999Y7239990D03*
G01*
X7620000Y7030008D03*
G01*
X8119999Y7239990D03*
G01*
X9525000Y7030008D03*
G01*
X10024999Y7239990D03*
G01*
X11430000Y7030008D03*
G01*
X11929999Y7239990D03*
G01*
X17145000Y7030008D03*
G01*
X17644999Y7239990D03*
G01*
X19050000Y7030008D03*
G01*
X19549999Y7239990D03*
G01*
X20955000Y7030008D03*
G01*
X21454999Y7239990D03*
G01*
X22860000Y7030008D03*
G01*
X23359999Y7239990D03*
G01*
X24765000Y7030008D03*
G01*
X25264999Y7239990D03*
G01*
X26670000Y7030008D03*
G01*
X27169999Y7239990D03*
G01*
X1905000Y3220008D03*
G01*
X2404999Y3429990D03*
G01*
X3810000Y3220008D03*
G01*
X4309999Y3429990D03*
G01*
X5715000Y3220008D03*
G01*
X6214999Y3429990D03*
G01*
X7620000Y3220008D03*
G01*
X8119999Y3429990D03*
G01*
X9525000Y3220008D03*
G01*
X10024999Y3429990D03*
G01*
X11430000Y3220008D03*
G01*
X11929999Y3429990D03*
G01*
X17145000Y3220008D03*
G01*
X17644999Y3429990D03*
G01*
X19050000Y3220008D03*
G01*
X19549999Y3429990D03*
G01*
X20955000Y3220008D03*
G01*
X21454999Y3429990D03*
G01*
X22860000Y3220008D03*
G01*
X23359999Y3429990D03*
G01*
X24765000Y3220008D03*
G01*
X25264999Y3429990D03*
G01*
X26670000Y3220008D03*
G01*
X27169999Y3429990D03*
D12*
G01*
X13538200Y10248900D03*
D11*
G01*
X13538200Y9994900D03*
G01*
X13538200Y9486900D03*
G01*
X13538200Y9232900D03*
G01*
X13538200Y8978900D03*
G01*
X13538200Y8724900D03*
G01*
X13538200Y8470900D03*
G01*
X13538200Y8216900D03*
G01*
X13538200Y7962900D03*
G01*
X13538200Y7708900D03*
G01*
X13538200Y7454900D03*
G01*
X15062200Y7454900D03*
G01*
X15062200Y7708900D03*
G01*
X15062200Y7962900D03*
G01*
X15062200Y8216900D03*
G01*
X15062200Y8470900D03*
G01*
X15062200Y8724900D03*
G01*
X15062200Y8978900D03*
G01*
X15062200Y9232900D03*
G01*
X15062200Y9486900D03*
G01*
X15062200Y9740900D03*
G01*
X15062200Y9994900D03*
G01*
X15062200Y10248900D03*
G01*
X13538200Y9740900D03*
M02*
