G04 Layer: BottomSilkscreenLayer*
G04 EasyEDA v6.5.22, 2022-11-03 13:25:14*
G04 daeccbeab38c4538aae3d189e396c967,14fd66e66b1542709ab820776f733a5e,10*
G04 Gerber Generator version 0.2*
G04 Scale: 100 percent, Rotated: No, Reflected: No *
G04 Dimensions in millimeters *
G04 leading zeros omitted , absolute positions ,4 integer and 5 decimal *
%FSLAX45Y45*%
%MOMM*%

%ADD10C,0.1524*%

%LPD*%
D10*
X3100115Y6668201D02*
G01*
X2991149Y6668201D01*
X3100115Y6668201D02*
G01*
X3100115Y6704777D01*
X3095035Y6720271D01*
X3084621Y6730685D01*
X3074207Y6735765D01*
X3058459Y6741099D01*
X3032551Y6741099D01*
X3017057Y6735765D01*
X3006643Y6730685D01*
X2996229Y6720271D01*
X2991149Y6704777D01*
X2991149Y6668201D01*
X3079287Y6775389D02*
G01*
X3084621Y6785803D01*
X3100115Y6801297D01*
X2991149Y6801297D01*
X3074207Y6840667D02*
G01*
X3079287Y6840667D01*
X3089701Y6846001D01*
X3095035Y6851081D01*
X3100115Y6861495D01*
X3100115Y6882323D01*
X3095035Y6892737D01*
X3089701Y6897817D01*
X3079287Y6903151D01*
X3068873Y6903151D01*
X3058459Y6897817D01*
X3042965Y6887657D01*
X2991149Y6835587D01*
X2991149Y6908231D01*
X5005316Y6668201D02*
G01*
X4896350Y6668201D01*
X5005316Y6668201D02*
G01*
X5005316Y6704777D01*
X5000236Y6720271D01*
X4989822Y6730685D01*
X4979408Y6735765D01*
X4963660Y6741099D01*
X4937752Y6741099D01*
X4922258Y6735765D01*
X4911844Y6730685D01*
X4901430Y6720271D01*
X4896350Y6704777D01*
X4896350Y6668201D01*
X4984488Y6775389D02*
G01*
X4989822Y6785803D01*
X5005316Y6801297D01*
X4896350Y6801297D01*
X5005316Y6846001D02*
G01*
X5005316Y6903151D01*
X4963660Y6871909D01*
X4963660Y6887657D01*
X4958580Y6897817D01*
X4953500Y6903151D01*
X4937752Y6908231D01*
X4927338Y6908231D01*
X4911844Y6903151D01*
X4901430Y6892737D01*
X4896350Y6877243D01*
X4896350Y6861495D01*
X4901430Y6846001D01*
X4906510Y6840667D01*
X4916924Y6835587D01*
X6910517Y6668201D02*
G01*
X6801551Y6668201D01*
X6910517Y6668201D02*
G01*
X6910517Y6704777D01*
X6905437Y6720271D01*
X6895023Y6730685D01*
X6884609Y6735765D01*
X6868861Y6741099D01*
X6842953Y6741099D01*
X6827459Y6735765D01*
X6817045Y6730685D01*
X6806631Y6720271D01*
X6801551Y6704777D01*
X6801551Y6668201D01*
X6889689Y6775389D02*
G01*
X6895023Y6785803D01*
X6910517Y6801297D01*
X6801551Y6801297D01*
X6910517Y6887657D02*
G01*
X6837873Y6835587D01*
X6837873Y6913565D01*
X6910517Y6887657D02*
G01*
X6801551Y6887657D01*
X8815715Y6668201D02*
G01*
X8706749Y6668201D01*
X8815715Y6668201D02*
G01*
X8815715Y6704777D01*
X8810635Y6720271D01*
X8800221Y6730685D01*
X8789807Y6735765D01*
X8774059Y6741099D01*
X8748151Y6741099D01*
X8732657Y6735765D01*
X8722243Y6730685D01*
X8711829Y6720271D01*
X8706749Y6704777D01*
X8706749Y6668201D01*
X8794887Y6775389D02*
G01*
X8800221Y6785803D01*
X8815715Y6801297D01*
X8706749Y6801297D01*
X8815715Y6897817D02*
G01*
X8815715Y6846001D01*
X8768979Y6840667D01*
X8774059Y6846001D01*
X8779393Y6861495D01*
X8779393Y6877243D01*
X8774059Y6892737D01*
X8763899Y6903151D01*
X8748151Y6908231D01*
X8737737Y6908231D01*
X8722243Y6903151D01*
X8711829Y6892737D01*
X8706749Y6877243D01*
X8706749Y6861495D01*
X8711829Y6846001D01*
X8716909Y6840667D01*
X8727323Y6835587D01*
X10720915Y6668201D02*
G01*
X10611949Y6668201D01*
X10720915Y6668201D02*
G01*
X10720915Y6704777D01*
X10715835Y6720271D01*
X10705421Y6730685D01*
X10695007Y6735765D01*
X10679259Y6741099D01*
X10653351Y6741099D01*
X10637857Y6735765D01*
X10627443Y6730685D01*
X10617029Y6720271D01*
X10611949Y6704777D01*
X10611949Y6668201D01*
X10700087Y6775389D02*
G01*
X10705421Y6785803D01*
X10720915Y6801297D01*
X10611949Y6801297D01*
X10705421Y6897817D02*
G01*
X10715835Y6892737D01*
X10720915Y6877243D01*
X10720915Y6866829D01*
X10715835Y6851081D01*
X10700087Y6840667D01*
X10674179Y6835587D01*
X10648271Y6835587D01*
X10627443Y6840667D01*
X10617029Y6851081D01*
X10611949Y6866829D01*
X10611949Y6871909D01*
X10617029Y6887657D01*
X10627443Y6897817D01*
X10642937Y6903151D01*
X10648271Y6903151D01*
X10663765Y6897817D01*
X10674179Y6887657D01*
X10679259Y6871909D01*
X10679259Y6866829D01*
X10674179Y6851081D01*
X10663765Y6840667D01*
X10648271Y6835587D01*
X12626116Y6668201D02*
G01*
X12517150Y6668201D01*
X12626116Y6668201D02*
G01*
X12626116Y6704777D01*
X12621036Y6720271D01*
X12610622Y6730685D01*
X12600208Y6735765D01*
X12584460Y6741099D01*
X12558552Y6741099D01*
X12543058Y6735765D01*
X12532644Y6730685D01*
X12522230Y6720271D01*
X12517150Y6704777D01*
X12517150Y6668201D01*
X12605288Y6775389D02*
G01*
X12610622Y6785803D01*
X12626116Y6801297D01*
X12517150Y6801297D01*
X12626116Y6908231D02*
G01*
X12517150Y6856415D01*
X12626116Y6835587D02*
G01*
X12626116Y6908231D01*
X18341317Y6668201D02*
G01*
X18232351Y6668201D01*
X18341317Y6668201D02*
G01*
X18341317Y6704777D01*
X18336237Y6720271D01*
X18325823Y6730685D01*
X18315409Y6735765D01*
X18299661Y6741099D01*
X18273753Y6741099D01*
X18258259Y6735765D01*
X18247845Y6730685D01*
X18237431Y6720271D01*
X18232351Y6704777D01*
X18232351Y6668201D01*
X18320489Y6775389D02*
G01*
X18325823Y6785803D01*
X18341317Y6801297D01*
X18232351Y6801297D01*
X18341317Y6861495D02*
G01*
X18336237Y6846001D01*
X18325823Y6840667D01*
X18315409Y6840667D01*
X18304995Y6846001D01*
X18299661Y6856415D01*
X18294581Y6877243D01*
X18289501Y6892737D01*
X18279087Y6903151D01*
X18268673Y6908231D01*
X18252925Y6908231D01*
X18242511Y6903151D01*
X18237431Y6897817D01*
X18232351Y6882323D01*
X18232351Y6861495D01*
X18237431Y6846001D01*
X18242511Y6840667D01*
X18252925Y6835587D01*
X18268673Y6835587D01*
X18279087Y6840667D01*
X18289501Y6851081D01*
X18294581Y6866829D01*
X18299661Y6887657D01*
X18304995Y6897817D01*
X18315409Y6903151D01*
X18325823Y6903151D01*
X18336237Y6897817D01*
X18341317Y6882323D01*
X18341317Y6861495D01*
X20246515Y6668201D02*
G01*
X20137549Y6668201D01*
X20246515Y6668201D02*
G01*
X20246515Y6704777D01*
X20241435Y6720271D01*
X20231021Y6730685D01*
X20220607Y6735765D01*
X20204859Y6741099D01*
X20178951Y6741099D01*
X20163457Y6735765D01*
X20153043Y6730685D01*
X20142629Y6720271D01*
X20137549Y6704777D01*
X20137549Y6668201D01*
X20225687Y6775389D02*
G01*
X20231021Y6785803D01*
X20246515Y6801297D01*
X20137549Y6801297D01*
X20210193Y6903151D02*
G01*
X20194699Y6897817D01*
X20184285Y6887657D01*
X20178951Y6871909D01*
X20178951Y6866829D01*
X20184285Y6851081D01*
X20194699Y6840667D01*
X20210193Y6835587D01*
X20215273Y6835587D01*
X20231021Y6840667D01*
X20241435Y6851081D01*
X20246515Y6866829D01*
X20246515Y6871909D01*
X20241435Y6887657D01*
X20231021Y6897817D01*
X20210193Y6903151D01*
X20184285Y6903151D01*
X20158123Y6897817D01*
X20142629Y6887657D01*
X20137549Y6871909D01*
X20137549Y6861495D01*
X20142629Y6846001D01*
X20153043Y6840667D01*
X22151715Y6668201D02*
G01*
X22042749Y6668201D01*
X22151715Y6668201D02*
G01*
X22151715Y6704777D01*
X22146635Y6720271D01*
X22136221Y6730685D01*
X22125807Y6735765D01*
X22110059Y6741099D01*
X22084151Y6741099D01*
X22068657Y6735765D01*
X22058243Y6730685D01*
X22047829Y6720271D01*
X22042749Y6704777D01*
X22042749Y6668201D01*
X22125807Y6780469D02*
G01*
X22130887Y6780469D01*
X22141301Y6785803D01*
X22146635Y6790883D01*
X22151715Y6801297D01*
X22151715Y6822125D01*
X22146635Y6832539D01*
X22141301Y6837619D01*
X22130887Y6842953D01*
X22120473Y6842953D01*
X22110059Y6837619D01*
X22094565Y6827205D01*
X22042749Y6775389D01*
X22042749Y6848033D01*
X22151715Y6913565D02*
G01*
X22146635Y6897817D01*
X22130887Y6887657D01*
X22104979Y6882323D01*
X22089485Y6882323D01*
X22063323Y6887657D01*
X22047829Y6897817D01*
X22042749Y6913565D01*
X22042749Y6923979D01*
X22047829Y6939473D01*
X22063323Y6949887D01*
X22089485Y6954967D01*
X22104979Y6954967D01*
X22130887Y6949887D01*
X22146635Y6939473D01*
X22151715Y6923979D01*
X22151715Y6913565D01*
X24056916Y6668201D02*
G01*
X23947950Y6668201D01*
X24056916Y6668201D02*
G01*
X24056916Y6704777D01*
X24051836Y6720271D01*
X24041422Y6730685D01*
X24031008Y6735765D01*
X24015260Y6741099D01*
X23989352Y6741099D01*
X23973858Y6735765D01*
X23963444Y6730685D01*
X23953030Y6720271D01*
X23947950Y6704777D01*
X23947950Y6668201D01*
X24031008Y6780469D02*
G01*
X24036088Y6780469D01*
X24046502Y6785803D01*
X24051836Y6790883D01*
X24056916Y6801297D01*
X24056916Y6822125D01*
X24051836Y6832539D01*
X24046502Y6837619D01*
X24036088Y6842953D01*
X24025674Y6842953D01*
X24015260Y6837619D01*
X23999766Y6827205D01*
X23947950Y6775389D01*
X23947950Y6848033D01*
X24036088Y6882323D02*
G01*
X24041422Y6892737D01*
X24056916Y6908231D01*
X23947950Y6908231D01*
X25962117Y6668201D02*
G01*
X25853151Y6668201D01*
X25962117Y6668201D02*
G01*
X25962117Y6704777D01*
X25957037Y6720271D01*
X25946623Y6730685D01*
X25936209Y6735765D01*
X25920461Y6741099D01*
X25894553Y6741099D01*
X25879059Y6735765D01*
X25868645Y6730685D01*
X25858231Y6720271D01*
X25853151Y6704777D01*
X25853151Y6668201D01*
X25936209Y6780469D02*
G01*
X25941289Y6780469D01*
X25951703Y6785803D01*
X25957037Y6790883D01*
X25962117Y6801297D01*
X25962117Y6822125D01*
X25957037Y6832539D01*
X25951703Y6837619D01*
X25941289Y6842953D01*
X25930875Y6842953D01*
X25920461Y6837619D01*
X25904967Y6827205D01*
X25853151Y6775389D01*
X25853151Y6848033D01*
X25936209Y6887657D02*
G01*
X25941289Y6887657D01*
X25951703Y6892737D01*
X25957037Y6897817D01*
X25962117Y6908231D01*
X25962117Y6929059D01*
X25957037Y6939473D01*
X25951703Y6944807D01*
X25941289Y6949887D01*
X25930875Y6949887D01*
X25920461Y6944807D01*
X25904967Y6934393D01*
X25853151Y6882323D01*
X25853151Y6954967D01*
X27867315Y6668201D02*
G01*
X27758349Y6668201D01*
X27867315Y6668201D02*
G01*
X27867315Y6704777D01*
X27862235Y6720271D01*
X27851821Y6730685D01*
X27841407Y6735765D01*
X27825659Y6741099D01*
X27799751Y6741099D01*
X27784257Y6735765D01*
X27773843Y6730685D01*
X27763429Y6720271D01*
X27758349Y6704777D01*
X27758349Y6668201D01*
X27841407Y6780469D02*
G01*
X27846487Y6780469D01*
X27856901Y6785803D01*
X27862235Y6790883D01*
X27867315Y6801297D01*
X27867315Y6822125D01*
X27862235Y6832539D01*
X27856901Y6837619D01*
X27846487Y6842953D01*
X27836073Y6842953D01*
X27825659Y6837619D01*
X27810165Y6827205D01*
X27758349Y6775389D01*
X27758349Y6848033D01*
X27867315Y6892737D02*
G01*
X27867315Y6949887D01*
X27825659Y6918645D01*
X27825659Y6934393D01*
X27820579Y6944807D01*
X27815499Y6949887D01*
X27799751Y6954967D01*
X27789337Y6954967D01*
X27773843Y6949887D01*
X27763429Y6939473D01*
X27758349Y6923979D01*
X27758349Y6908231D01*
X27763429Y6892737D01*
X27768509Y6887657D01*
X27778923Y6882323D01*
X3100115Y2857799D02*
G01*
X2991149Y2857799D01*
X3100115Y2857799D02*
G01*
X3100115Y2894375D01*
X3095035Y2909869D01*
X3084621Y2920283D01*
X3074207Y2925363D01*
X3058459Y2930697D01*
X3032551Y2930697D01*
X3017057Y2925363D01*
X3006643Y2920283D01*
X2996229Y2909869D01*
X2991149Y2894375D01*
X2991149Y2857799D01*
X3100115Y2975401D02*
G01*
X3100115Y3032551D01*
X3058459Y3001309D01*
X3058459Y3016803D01*
X3053379Y3027217D01*
X3048299Y3032551D01*
X3032551Y3037631D01*
X3022137Y3037631D01*
X3006643Y3032551D01*
X2996229Y3022137D01*
X2991149Y3006389D01*
X2991149Y2990895D01*
X2996229Y2975401D01*
X3001309Y2970067D01*
X3011723Y2964987D01*
X3084621Y3134405D02*
G01*
X3095035Y3129071D01*
X3100115Y3113577D01*
X3100115Y3103163D01*
X3095035Y3087415D01*
X3079287Y3077255D01*
X3053379Y3071921D01*
X3027471Y3071921D01*
X3006643Y3077255D01*
X2996229Y3087415D01*
X2991149Y3103163D01*
X2991149Y3108243D01*
X2996229Y3123991D01*
X3006643Y3134405D01*
X3022137Y3139485D01*
X3027471Y3139485D01*
X3042965Y3134405D01*
X3053379Y3123991D01*
X3058459Y3108243D01*
X3058459Y3103163D01*
X3053379Y3087415D01*
X3042965Y3077255D01*
X3027471Y3071921D01*
X5005316Y2857799D02*
G01*
X4896350Y2857799D01*
X5005316Y2857799D02*
G01*
X5005316Y2894375D01*
X5000236Y2909869D01*
X4989822Y2920283D01*
X4979408Y2925363D01*
X4963660Y2930697D01*
X4937752Y2930697D01*
X4922258Y2925363D01*
X4911844Y2920283D01*
X4901430Y2909869D01*
X4896350Y2894375D01*
X4896350Y2857799D01*
X5005316Y2975401D02*
G01*
X5005316Y3032551D01*
X4963660Y3001309D01*
X4963660Y3016803D01*
X4958580Y3027217D01*
X4953500Y3032551D01*
X4937752Y3037631D01*
X4927338Y3037631D01*
X4911844Y3032551D01*
X4901430Y3022137D01*
X4896350Y3006389D01*
X4896350Y2990895D01*
X4901430Y2975401D01*
X4906510Y2970067D01*
X4916924Y2964987D01*
X5005316Y3144565D02*
G01*
X4896350Y3092749D01*
X5005316Y3071921D02*
G01*
X5005316Y3144565D01*
X6910517Y2857799D02*
G01*
X6801551Y2857799D01*
X6910517Y2857799D02*
G01*
X6910517Y2894375D01*
X6905437Y2909869D01*
X6895023Y2920283D01*
X6884609Y2925363D01*
X6868861Y2930697D01*
X6842953Y2930697D01*
X6827459Y2925363D01*
X6817045Y2920283D01*
X6806631Y2909869D01*
X6801551Y2894375D01*
X6801551Y2857799D01*
X6910517Y2975401D02*
G01*
X6910517Y3032551D01*
X6868861Y3001309D01*
X6868861Y3016803D01*
X6863781Y3027217D01*
X6858701Y3032551D01*
X6842953Y3037631D01*
X6832539Y3037631D01*
X6817045Y3032551D01*
X6806631Y3022137D01*
X6801551Y3006389D01*
X6801551Y2990895D01*
X6806631Y2975401D01*
X6811711Y2970067D01*
X6822125Y2964987D01*
X6910517Y3097829D02*
G01*
X6905437Y3082335D01*
X6895023Y3077255D01*
X6884609Y3077255D01*
X6874195Y3082335D01*
X6868861Y3092749D01*
X6863781Y3113577D01*
X6858701Y3129071D01*
X6848287Y3139485D01*
X6837873Y3144565D01*
X6822125Y3144565D01*
X6811711Y3139485D01*
X6806631Y3134405D01*
X6801551Y3118657D01*
X6801551Y3097829D01*
X6806631Y3082335D01*
X6811711Y3077255D01*
X6822125Y3071921D01*
X6837873Y3071921D01*
X6848287Y3077255D01*
X6858701Y3087415D01*
X6863781Y3103163D01*
X6868861Y3123991D01*
X6874195Y3134405D01*
X6884609Y3139485D01*
X6895023Y3139485D01*
X6905437Y3134405D01*
X6910517Y3118657D01*
X6910517Y3097829D01*
X8815715Y2857799D02*
G01*
X8706749Y2857799D01*
X8815715Y2857799D02*
G01*
X8815715Y2894375D01*
X8810635Y2909869D01*
X8800221Y2920283D01*
X8789807Y2925363D01*
X8774059Y2930697D01*
X8748151Y2930697D01*
X8732657Y2925363D01*
X8722243Y2920283D01*
X8711829Y2909869D01*
X8706749Y2894375D01*
X8706749Y2857799D01*
X8815715Y2975401D02*
G01*
X8815715Y3032551D01*
X8774059Y3001309D01*
X8774059Y3016803D01*
X8768979Y3027217D01*
X8763899Y3032551D01*
X8748151Y3037631D01*
X8737737Y3037631D01*
X8722243Y3032551D01*
X8711829Y3022137D01*
X8706749Y3006389D01*
X8706749Y2990895D01*
X8711829Y2975401D01*
X8716909Y2970067D01*
X8727323Y2964987D01*
X8779393Y3139485D02*
G01*
X8763899Y3134405D01*
X8753485Y3123991D01*
X8748151Y3108243D01*
X8748151Y3103163D01*
X8753485Y3087415D01*
X8763899Y3077255D01*
X8779393Y3071921D01*
X8784473Y3071921D01*
X8800221Y3077255D01*
X8810635Y3087415D01*
X8815715Y3103163D01*
X8815715Y3108243D01*
X8810635Y3123991D01*
X8800221Y3134405D01*
X8779393Y3139485D01*
X8753485Y3139485D01*
X8727323Y3134405D01*
X8711829Y3123991D01*
X8706749Y3108243D01*
X8706749Y3097829D01*
X8711829Y3082335D01*
X8722243Y3077255D01*
X10720915Y2857799D02*
G01*
X10611949Y2857799D01*
X10720915Y2857799D02*
G01*
X10720915Y2894375D01*
X10715835Y2909869D01*
X10705421Y2920283D01*
X10695007Y2925363D01*
X10679259Y2930697D01*
X10653351Y2930697D01*
X10637857Y2925363D01*
X10627443Y2920283D01*
X10617029Y2909869D01*
X10611949Y2894375D01*
X10611949Y2857799D01*
X10720915Y3016803D02*
G01*
X10648271Y2964987D01*
X10648271Y3042965D01*
X10720915Y3016803D02*
G01*
X10611949Y3016803D01*
X10720915Y3108243D02*
G01*
X10715835Y3092749D01*
X10700087Y3082335D01*
X10674179Y3077255D01*
X10658685Y3077255D01*
X10632523Y3082335D01*
X10617029Y3092749D01*
X10611949Y3108243D01*
X10611949Y3118657D01*
X10617029Y3134405D01*
X10632523Y3144565D01*
X10658685Y3149899D01*
X10674179Y3149899D01*
X10700087Y3144565D01*
X10715835Y3134405D01*
X10720915Y3118657D01*
X10720915Y3108243D01*
X12626116Y2857799D02*
G01*
X12517150Y2857799D01*
X12626116Y2857799D02*
G01*
X12626116Y2894375D01*
X12621036Y2909869D01*
X12610622Y2920283D01*
X12600208Y2925363D01*
X12584460Y2930697D01*
X12558552Y2930697D01*
X12543058Y2925363D01*
X12532644Y2920283D01*
X12522230Y2909869D01*
X12517150Y2894375D01*
X12517150Y2857799D01*
X12626116Y3016803D02*
G01*
X12553472Y2964987D01*
X12553472Y3042965D01*
X12626116Y3016803D02*
G01*
X12517150Y3016803D01*
X12605288Y3077255D02*
G01*
X12610622Y3087415D01*
X12626116Y3103163D01*
X12517150Y3103163D01*
X18341317Y2857799D02*
G01*
X18232351Y2857799D01*
X18341317Y2857799D02*
G01*
X18341317Y2894375D01*
X18336237Y2909869D01*
X18325823Y2920283D01*
X18315409Y2925363D01*
X18299661Y2930697D01*
X18273753Y2930697D01*
X18258259Y2925363D01*
X18247845Y2920283D01*
X18237431Y2909869D01*
X18232351Y2894375D01*
X18232351Y2857799D01*
X18341317Y3016803D02*
G01*
X18268673Y2964987D01*
X18268673Y3042965D01*
X18341317Y3016803D02*
G01*
X18232351Y3016803D01*
X18315409Y3082335D02*
G01*
X18320489Y3082335D01*
X18330903Y3087415D01*
X18336237Y3092749D01*
X18341317Y3103163D01*
X18341317Y3123991D01*
X18336237Y3134405D01*
X18330903Y3139485D01*
X18320489Y3144565D01*
X18310075Y3144565D01*
X18299661Y3139485D01*
X18284167Y3129071D01*
X18232351Y3077255D01*
X18232351Y3149899D01*
X20246515Y2857799D02*
G01*
X20137549Y2857799D01*
X20246515Y2857799D02*
G01*
X20246515Y2894375D01*
X20241435Y2909869D01*
X20231021Y2920283D01*
X20220607Y2925363D01*
X20204859Y2930697D01*
X20178951Y2930697D01*
X20163457Y2925363D01*
X20153043Y2920283D01*
X20142629Y2909869D01*
X20137549Y2894375D01*
X20137549Y2857799D01*
X20246515Y3016803D02*
G01*
X20173871Y2964987D01*
X20173871Y3042965D01*
X20246515Y3016803D02*
G01*
X20137549Y3016803D01*
X20246515Y3087415D02*
G01*
X20246515Y3144565D01*
X20204859Y3113577D01*
X20204859Y3129071D01*
X20199779Y3139485D01*
X20194699Y3144565D01*
X20178951Y3149899D01*
X20168537Y3149899D01*
X20153043Y3144565D01*
X20142629Y3134405D01*
X20137549Y3118657D01*
X20137549Y3103163D01*
X20142629Y3087415D01*
X20147709Y3082335D01*
X20158123Y3077255D01*
X22151715Y2857799D02*
G01*
X22042749Y2857799D01*
X22151715Y2857799D02*
G01*
X22151715Y2894375D01*
X22146635Y2909869D01*
X22136221Y2920283D01*
X22125807Y2925363D01*
X22110059Y2930697D01*
X22084151Y2930697D01*
X22068657Y2925363D01*
X22058243Y2920283D01*
X22047829Y2909869D01*
X22042749Y2894375D01*
X22042749Y2857799D01*
X22151715Y3016803D02*
G01*
X22079071Y2964987D01*
X22079071Y3042965D01*
X22151715Y3016803D02*
G01*
X22042749Y3016803D01*
X22151715Y3129071D02*
G01*
X22079071Y3077255D01*
X22079071Y3154979D01*
X22151715Y3129071D02*
G01*
X22042749Y3129071D01*
X24056916Y2857799D02*
G01*
X23947950Y2857799D01*
X24056916Y2857799D02*
G01*
X24056916Y2894375D01*
X24051836Y2909869D01*
X24041422Y2920283D01*
X24031008Y2925363D01*
X24015260Y2930697D01*
X23989352Y2930697D01*
X23973858Y2925363D01*
X23963444Y2920283D01*
X23953030Y2909869D01*
X23947950Y2894375D01*
X23947950Y2857799D01*
X24056916Y3016803D02*
G01*
X23984272Y2964987D01*
X23984272Y3042965D01*
X24056916Y3016803D02*
G01*
X23947950Y3016803D01*
X24056916Y3139485D02*
G01*
X24056916Y3087415D01*
X24010180Y3082335D01*
X24015260Y3087415D01*
X24020594Y3103163D01*
X24020594Y3118657D01*
X24015260Y3134405D01*
X24005100Y3144565D01*
X23989352Y3149899D01*
X23978938Y3149899D01*
X23963444Y3144565D01*
X23953030Y3134405D01*
X23947950Y3118657D01*
X23947950Y3103163D01*
X23953030Y3087415D01*
X23958110Y3082335D01*
X23968524Y3077255D01*
X25962117Y2857799D02*
G01*
X25853151Y2857799D01*
X25962117Y2857799D02*
G01*
X25962117Y2894375D01*
X25957037Y2909869D01*
X25946623Y2920283D01*
X25936209Y2925363D01*
X25920461Y2930697D01*
X25894553Y2930697D01*
X25879059Y2925363D01*
X25868645Y2920283D01*
X25858231Y2909869D01*
X25853151Y2894375D01*
X25853151Y2857799D01*
X25962117Y3016803D02*
G01*
X25889473Y2964987D01*
X25889473Y3042965D01*
X25962117Y3016803D02*
G01*
X25853151Y3016803D01*
X25946623Y3139485D02*
G01*
X25957037Y3134405D01*
X25962117Y3118657D01*
X25962117Y3108243D01*
X25957037Y3092749D01*
X25941289Y3082335D01*
X25915381Y3077255D01*
X25889473Y3077255D01*
X25868645Y3082335D01*
X25858231Y3092749D01*
X25853151Y3108243D01*
X25853151Y3113577D01*
X25858231Y3129071D01*
X25868645Y3139485D01*
X25884139Y3144565D01*
X25889473Y3144565D01*
X25904967Y3139485D01*
X25915381Y3129071D01*
X25920461Y3113577D01*
X25920461Y3108243D01*
X25915381Y3092749D01*
X25904967Y3082335D01*
X25889473Y3077255D01*
X27867315Y2857799D02*
G01*
X27758349Y2857799D01*
X27867315Y2857799D02*
G01*
X27867315Y2894375D01*
X27862235Y2909869D01*
X27851821Y2920283D01*
X27841407Y2925363D01*
X27825659Y2930697D01*
X27799751Y2930697D01*
X27784257Y2925363D01*
X27773843Y2920283D01*
X27763429Y2909869D01*
X27758349Y2894375D01*
X27758349Y2857799D01*
X27867315Y3016803D02*
G01*
X27794671Y2964987D01*
X27794671Y3042965D01*
X27867315Y3016803D02*
G01*
X27758349Y3016803D01*
X27867315Y3149899D02*
G01*
X27758349Y3097829D01*
X27867315Y3077255D02*
G01*
X27867315Y3149899D01*
X18341916Y8573399D02*
G01*
X18232950Y8573399D01*
X18341916Y8573399D02*
G01*
X18341916Y8609721D01*
X18336836Y8625469D01*
X18326422Y8635629D01*
X18316008Y8640963D01*
X18300260Y8646043D01*
X18274352Y8646043D01*
X18258858Y8640963D01*
X18248444Y8635629D01*
X18238030Y8625469D01*
X18232950Y8609721D01*
X18232950Y8573399D01*
X18326422Y8742817D02*
G01*
X18336836Y8737483D01*
X18341916Y8721989D01*
X18341916Y8711575D01*
X18336836Y8696081D01*
X18321088Y8685667D01*
X18295180Y8680333D01*
X18269272Y8680333D01*
X18248444Y8685667D01*
X18238030Y8696081D01*
X18232950Y8711575D01*
X18232950Y8716909D01*
X18238030Y8732403D01*
X18248444Y8742817D01*
X18263938Y8747897D01*
X18269272Y8747897D01*
X18284766Y8742817D01*
X18295180Y8732403D01*
X18300260Y8716909D01*
X18300260Y8711575D01*
X18295180Y8696081D01*
X18284766Y8685667D01*
X18269272Y8680333D01*
X20246515Y8573399D02*
G01*
X20137549Y8573399D01*
X20246515Y8573399D02*
G01*
X20246515Y8609721D01*
X20241435Y8625469D01*
X20231021Y8635629D01*
X20220607Y8640963D01*
X20204859Y8646043D01*
X20178951Y8646043D01*
X20163457Y8640963D01*
X20153043Y8635629D01*
X20142629Y8625469D01*
X20137549Y8609721D01*
X20137549Y8573399D01*
X20246515Y8753231D02*
G01*
X20137549Y8701161D01*
X20246515Y8680333D02*
G01*
X20246515Y8753231D01*
X22151715Y8573399D02*
G01*
X22042749Y8573399D01*
X22151715Y8573399D02*
G01*
X22151715Y8609721D01*
X22146635Y8625469D01*
X22136221Y8635629D01*
X22125807Y8640963D01*
X22110059Y8646043D01*
X22084151Y8646043D01*
X22068657Y8640963D01*
X22058243Y8635629D01*
X22047829Y8625469D01*
X22042749Y8609721D01*
X22042749Y8573399D01*
X22151715Y8706495D02*
G01*
X22146635Y8690747D01*
X22136221Y8685667D01*
X22125807Y8685667D01*
X22115393Y8690747D01*
X22110059Y8701161D01*
X22104979Y8721989D01*
X22099899Y8737483D01*
X22089485Y8747897D01*
X22079071Y8753231D01*
X22063323Y8753231D01*
X22052909Y8747897D01*
X22047829Y8742817D01*
X22042749Y8727069D01*
X22042749Y8706495D01*
X22047829Y8690747D01*
X22052909Y8685667D01*
X22063323Y8680333D01*
X22079071Y8680333D01*
X22089485Y8685667D01*
X22099899Y8696081D01*
X22104979Y8711575D01*
X22110059Y8732403D01*
X22115393Y8742817D01*
X22125807Y8747897D01*
X22136221Y8747897D01*
X22146635Y8742817D01*
X22151715Y8727069D01*
X22151715Y8706495D01*
X24057516Y8573399D02*
G01*
X23948550Y8573399D01*
X24057516Y8573399D02*
G01*
X24057516Y8609721D01*
X24052436Y8625469D01*
X24042022Y8635629D01*
X24031608Y8640963D01*
X24015860Y8646043D01*
X23989952Y8646043D01*
X23974458Y8640963D01*
X23964044Y8635629D01*
X23953630Y8625469D01*
X23948550Y8609721D01*
X23948550Y8573399D01*
X24021194Y8747897D02*
G01*
X24005700Y8742817D01*
X23995286Y8732403D01*
X23989952Y8716909D01*
X23989952Y8711575D01*
X23995286Y8696081D01*
X24005700Y8685667D01*
X24021194Y8680333D01*
X24026274Y8680333D01*
X24042022Y8685667D01*
X24052436Y8696081D01*
X24057516Y8711575D01*
X24057516Y8716909D01*
X24052436Y8732403D01*
X24042022Y8742817D01*
X24021194Y8747897D01*
X23995286Y8747897D01*
X23969124Y8742817D01*
X23953630Y8732403D01*
X23948550Y8716909D01*
X23948550Y8706495D01*
X23953630Y8690747D01*
X23964044Y8685667D01*
X25962117Y8573399D02*
G01*
X25853151Y8573399D01*
X25962117Y8573399D02*
G01*
X25962117Y8609721D01*
X25957037Y8625469D01*
X25946623Y8635629D01*
X25936209Y8640963D01*
X25920461Y8646043D01*
X25894553Y8646043D01*
X25879059Y8640963D01*
X25868645Y8635629D01*
X25858231Y8625469D01*
X25853151Y8609721D01*
X25853151Y8573399D01*
X25941289Y8680333D02*
G01*
X25946623Y8690747D01*
X25962117Y8706495D01*
X25853151Y8706495D01*
X25962117Y8771773D02*
G01*
X25957037Y8756279D01*
X25941289Y8745865D01*
X25915381Y8740785D01*
X25899887Y8740785D01*
X25873725Y8745865D01*
X25858231Y8756279D01*
X25853151Y8771773D01*
X25853151Y8782187D01*
X25858231Y8797935D01*
X25873725Y8808349D01*
X25899887Y8813429D01*
X25915381Y8813429D01*
X25941289Y8808349D01*
X25957037Y8797935D01*
X25962117Y8782187D01*
X25962117Y8771773D01*
X27867315Y8573399D02*
G01*
X27758349Y8573399D01*
X27867315Y8573399D02*
G01*
X27867315Y8609721D01*
X27862235Y8625469D01*
X27851821Y8635629D01*
X27841407Y8640963D01*
X27825659Y8646043D01*
X27799751Y8646043D01*
X27784257Y8640963D01*
X27773843Y8635629D01*
X27763429Y8625469D01*
X27758349Y8609721D01*
X27758349Y8573399D01*
X27846487Y8680333D02*
G01*
X27851821Y8690747D01*
X27867315Y8706495D01*
X27758349Y8706495D01*
X27846487Y8740785D02*
G01*
X27851821Y8751199D01*
X27867315Y8766693D01*
X27758349Y8766693D01*
X3100115Y4763000D02*
G01*
X2991149Y4763000D01*
X3100115Y4763000D02*
G01*
X3100115Y4799322D01*
X3095035Y4815070D01*
X3084621Y4825230D01*
X3074207Y4830564D01*
X3058459Y4835644D01*
X3032551Y4835644D01*
X3017057Y4830564D01*
X3006643Y4825230D01*
X2996229Y4815070D01*
X2991149Y4799322D01*
X2991149Y4763000D01*
X3074207Y4875268D02*
G01*
X3079287Y4875268D01*
X3089701Y4880348D01*
X3095035Y4885682D01*
X3100115Y4896096D01*
X3100115Y4916670D01*
X3095035Y4927084D01*
X3089701Y4932418D01*
X3079287Y4937498D01*
X3068873Y4937498D01*
X3058459Y4932418D01*
X3042965Y4922004D01*
X2991149Y4869934D01*
X2991149Y4942832D01*
X3100115Y5028938D02*
G01*
X3027471Y4977122D01*
X3027471Y5055100D01*
X3100115Y5028938D02*
G01*
X2991149Y5028938D01*
X5005316Y4763000D02*
G01*
X4896350Y4763000D01*
X5005316Y4763000D02*
G01*
X5005316Y4799322D01*
X5000236Y4815070D01*
X4989822Y4825230D01*
X4979408Y4830564D01*
X4963660Y4835644D01*
X4937752Y4835644D01*
X4922258Y4830564D01*
X4911844Y4825230D01*
X4901430Y4815070D01*
X4896350Y4799322D01*
X4896350Y4763000D01*
X4979408Y4875268D02*
G01*
X4984488Y4875268D01*
X4994902Y4880348D01*
X5000236Y4885682D01*
X5005316Y4896096D01*
X5005316Y4916670D01*
X5000236Y4927084D01*
X4994902Y4932418D01*
X4984488Y4937498D01*
X4974074Y4937498D01*
X4963660Y4932418D01*
X4948166Y4922004D01*
X4896350Y4869934D01*
X4896350Y4942832D01*
X5005316Y5039352D02*
G01*
X5005316Y4987536D01*
X4958580Y4982202D01*
X4963660Y4987536D01*
X4968994Y5003030D01*
X4968994Y5018524D01*
X4963660Y5034272D01*
X4953500Y5044686D01*
X4937752Y5049766D01*
X4927338Y5049766D01*
X4911844Y5044686D01*
X4901430Y5034272D01*
X4896350Y5018524D01*
X4896350Y5003030D01*
X4901430Y4987536D01*
X4906510Y4982202D01*
X4916924Y4977122D01*
X6910517Y4763000D02*
G01*
X6801551Y4763000D01*
X6910517Y4763000D02*
G01*
X6910517Y4799322D01*
X6905437Y4815070D01*
X6895023Y4825230D01*
X6884609Y4830564D01*
X6868861Y4835644D01*
X6842953Y4835644D01*
X6827459Y4830564D01*
X6817045Y4825230D01*
X6806631Y4815070D01*
X6801551Y4799322D01*
X6801551Y4763000D01*
X6884609Y4875268D02*
G01*
X6889689Y4875268D01*
X6900103Y4880348D01*
X6905437Y4885682D01*
X6910517Y4896096D01*
X6910517Y4916670D01*
X6905437Y4927084D01*
X6900103Y4932418D01*
X6889689Y4937498D01*
X6879275Y4937498D01*
X6868861Y4932418D01*
X6853367Y4922004D01*
X6801551Y4869934D01*
X6801551Y4942832D01*
X6895023Y5039352D02*
G01*
X6905437Y5034272D01*
X6910517Y5018524D01*
X6910517Y5008110D01*
X6905437Y4992616D01*
X6889689Y4982202D01*
X6863781Y4977122D01*
X6837873Y4977122D01*
X6817045Y4982202D01*
X6806631Y4992616D01*
X6801551Y5008110D01*
X6801551Y5013444D01*
X6806631Y5028938D01*
X6817045Y5039352D01*
X6832539Y5044686D01*
X6837873Y5044686D01*
X6853367Y5039352D01*
X6863781Y5028938D01*
X6868861Y5013444D01*
X6868861Y5008110D01*
X6863781Y4992616D01*
X6853367Y4982202D01*
X6837873Y4977122D01*
X8815715Y4763000D02*
G01*
X8706749Y4763000D01*
X8815715Y4763000D02*
G01*
X8815715Y4799322D01*
X8810635Y4815070D01*
X8800221Y4825230D01*
X8789807Y4830564D01*
X8774059Y4835644D01*
X8748151Y4835644D01*
X8732657Y4830564D01*
X8722243Y4825230D01*
X8711829Y4815070D01*
X8706749Y4799322D01*
X8706749Y4763000D01*
X8789807Y4875268D02*
G01*
X8794887Y4875268D01*
X8805301Y4880348D01*
X8810635Y4885682D01*
X8815715Y4896096D01*
X8815715Y4916670D01*
X8810635Y4927084D01*
X8805301Y4932418D01*
X8794887Y4937498D01*
X8784473Y4937498D01*
X8774059Y4932418D01*
X8758565Y4922004D01*
X8706749Y4869934D01*
X8706749Y4942832D01*
X8815715Y5049766D02*
G01*
X8706749Y4997950D01*
X8815715Y4977122D02*
G01*
X8815715Y5049766D01*
X10720915Y4763000D02*
G01*
X10611949Y4763000D01*
X10720915Y4763000D02*
G01*
X10720915Y4799322D01*
X10715835Y4815070D01*
X10705421Y4825230D01*
X10695007Y4830564D01*
X10679259Y4835644D01*
X10653351Y4835644D01*
X10637857Y4830564D01*
X10627443Y4825230D01*
X10617029Y4815070D01*
X10611949Y4799322D01*
X10611949Y4763000D01*
X10695007Y4875268D02*
G01*
X10700087Y4875268D01*
X10710501Y4880348D01*
X10715835Y4885682D01*
X10720915Y4896096D01*
X10720915Y4916670D01*
X10715835Y4927084D01*
X10710501Y4932418D01*
X10700087Y4937498D01*
X10689673Y4937498D01*
X10679259Y4932418D01*
X10663765Y4922004D01*
X10611949Y4869934D01*
X10611949Y4942832D01*
X10720915Y5003030D02*
G01*
X10715835Y4987536D01*
X10705421Y4982202D01*
X10695007Y4982202D01*
X10684593Y4987536D01*
X10679259Y4997950D01*
X10674179Y5018524D01*
X10669099Y5034272D01*
X10658685Y5044686D01*
X10648271Y5049766D01*
X10632523Y5049766D01*
X10622109Y5044686D01*
X10617029Y5039352D01*
X10611949Y5023858D01*
X10611949Y5003030D01*
X10617029Y4987536D01*
X10622109Y4982202D01*
X10632523Y4977122D01*
X10648271Y4977122D01*
X10658685Y4982202D01*
X10669099Y4992616D01*
X10674179Y5008110D01*
X10679259Y5028938D01*
X10684593Y5039352D01*
X10695007Y5044686D01*
X10705421Y5044686D01*
X10715835Y5039352D01*
X10720915Y5023858D01*
X10720915Y5003030D01*
X12626116Y4763000D02*
G01*
X12517150Y4763000D01*
X12626116Y4763000D02*
G01*
X12626116Y4799322D01*
X12621036Y4815070D01*
X12610622Y4825230D01*
X12600208Y4830564D01*
X12584460Y4835644D01*
X12558552Y4835644D01*
X12543058Y4830564D01*
X12532644Y4825230D01*
X12522230Y4815070D01*
X12517150Y4799322D01*
X12517150Y4763000D01*
X12600208Y4875268D02*
G01*
X12605288Y4875268D01*
X12615702Y4880348D01*
X12621036Y4885682D01*
X12626116Y4896096D01*
X12626116Y4916670D01*
X12621036Y4927084D01*
X12615702Y4932418D01*
X12605288Y4937498D01*
X12594874Y4937498D01*
X12584460Y4932418D01*
X12568966Y4922004D01*
X12517150Y4869934D01*
X12517150Y4942832D01*
X12589794Y5044686D02*
G01*
X12574300Y5039352D01*
X12563886Y5028938D01*
X12558552Y5013444D01*
X12558552Y5008110D01*
X12563886Y4992616D01*
X12574300Y4982202D01*
X12589794Y4977122D01*
X12594874Y4977122D01*
X12610622Y4982202D01*
X12621036Y4992616D01*
X12626116Y5008110D01*
X12626116Y5013444D01*
X12621036Y5028938D01*
X12610622Y5039352D01*
X12589794Y5044686D01*
X12563886Y5044686D01*
X12537724Y5039352D01*
X12522230Y5028938D01*
X12517150Y5013444D01*
X12517150Y5003030D01*
X12522230Y4987536D01*
X12532644Y4982202D01*
X18208053Y4966286D02*
G01*
X18208053Y4857320D01*
X18208053Y4966286D02*
G01*
X18171731Y4966286D01*
X18155983Y4961206D01*
X18145823Y4950792D01*
X18140489Y4940378D01*
X18135409Y4924630D01*
X18135409Y4898722D01*
X18140489Y4883228D01*
X18145823Y4872814D01*
X18155983Y4862400D01*
X18171731Y4857320D01*
X18208053Y4857320D01*
X18090705Y4966286D02*
G01*
X18033555Y4966286D01*
X18064543Y4924630D01*
X18049049Y4924630D01*
X18038635Y4919550D01*
X18033555Y4914470D01*
X18028221Y4898722D01*
X18028221Y4888308D01*
X18033555Y4872814D01*
X18043969Y4862400D01*
X18059463Y4857320D01*
X18074957Y4857320D01*
X18090705Y4862400D01*
X18095785Y4867480D01*
X18101119Y4877894D01*
X17962943Y4966286D02*
G01*
X17978437Y4961206D01*
X17988851Y4945458D01*
X17993931Y4919550D01*
X17993931Y4904056D01*
X17988851Y4877894D01*
X17978437Y4862400D01*
X17962943Y4857320D01*
X17952529Y4857320D01*
X17936781Y4862400D01*
X17926367Y4877894D01*
X17921287Y4904056D01*
X17921287Y4919550D01*
X17926367Y4945458D01*
X17936781Y4961206D01*
X17952529Y4966286D01*
X17962943Y4966286D01*
X20246515Y4763000D02*
G01*
X20137549Y4763000D01*
X20246515Y4763000D02*
G01*
X20246515Y4799322D01*
X20241435Y4815070D01*
X20231021Y4825230D01*
X20220607Y4830564D01*
X20204859Y4835644D01*
X20178951Y4835644D01*
X20163457Y4830564D01*
X20153043Y4825230D01*
X20142629Y4815070D01*
X20137549Y4799322D01*
X20137549Y4763000D01*
X20246515Y4880348D02*
G01*
X20246515Y4937498D01*
X20204859Y4906510D01*
X20204859Y4922004D01*
X20199779Y4932418D01*
X20194699Y4937498D01*
X20178951Y4942832D01*
X20168537Y4942832D01*
X20153043Y4937498D01*
X20142629Y4927084D01*
X20137549Y4911590D01*
X20137549Y4896096D01*
X20142629Y4880348D01*
X20147709Y4875268D01*
X20158123Y4869934D01*
X20225687Y4977122D02*
G01*
X20231021Y4987536D01*
X20246515Y5003030D01*
X20137549Y5003030D01*
X22151715Y4763000D02*
G01*
X22042749Y4763000D01*
X22151715Y4763000D02*
G01*
X22151715Y4799322D01*
X22146635Y4815070D01*
X22136221Y4825230D01*
X22125807Y4830564D01*
X22110059Y4835644D01*
X22084151Y4835644D01*
X22068657Y4830564D01*
X22058243Y4825230D01*
X22047829Y4815070D01*
X22042749Y4799322D01*
X22042749Y4763000D01*
X22151715Y4880348D02*
G01*
X22151715Y4937498D01*
X22110059Y4906510D01*
X22110059Y4922004D01*
X22104979Y4932418D01*
X22099899Y4937498D01*
X22084151Y4942832D01*
X22073737Y4942832D01*
X22058243Y4937498D01*
X22047829Y4927084D01*
X22042749Y4911590D01*
X22042749Y4896096D01*
X22047829Y4880348D01*
X22052909Y4875268D01*
X22063323Y4869934D01*
X22125807Y4982202D02*
G01*
X22130887Y4982202D01*
X22141301Y4987536D01*
X22146635Y4992616D01*
X22151715Y5003030D01*
X22151715Y5023858D01*
X22146635Y5034272D01*
X22141301Y5039352D01*
X22130887Y5044686D01*
X22120473Y5044686D01*
X22110059Y5039352D01*
X22094565Y5028938D01*
X22042749Y4977122D01*
X22042749Y5049766D01*
X24056916Y4763000D02*
G01*
X23947950Y4763000D01*
X24056916Y4763000D02*
G01*
X24056916Y4799322D01*
X24051836Y4815070D01*
X24041422Y4825230D01*
X24031008Y4830564D01*
X24015260Y4835644D01*
X23989352Y4835644D01*
X23973858Y4830564D01*
X23963444Y4825230D01*
X23953030Y4815070D01*
X23947950Y4799322D01*
X23947950Y4763000D01*
X24056916Y4880348D02*
G01*
X24056916Y4937498D01*
X24015260Y4906510D01*
X24015260Y4922004D01*
X24010180Y4932418D01*
X24005100Y4937498D01*
X23989352Y4942832D01*
X23978938Y4942832D01*
X23963444Y4937498D01*
X23953030Y4927084D01*
X23947950Y4911590D01*
X23947950Y4896096D01*
X23953030Y4880348D01*
X23958110Y4875268D01*
X23968524Y4869934D01*
X24056916Y4987536D02*
G01*
X24056916Y5044686D01*
X24015260Y5013444D01*
X24015260Y5028938D01*
X24010180Y5039352D01*
X24005100Y5044686D01*
X23989352Y5049766D01*
X23978938Y5049766D01*
X23963444Y5044686D01*
X23953030Y5034272D01*
X23947950Y5018524D01*
X23947950Y5003030D01*
X23953030Y4987536D01*
X23958110Y4982202D01*
X23968524Y4977122D01*
X25962117Y4763000D02*
G01*
X25853151Y4763000D01*
X25962117Y4763000D02*
G01*
X25962117Y4799322D01*
X25957037Y4815070D01*
X25946623Y4825230D01*
X25936209Y4830564D01*
X25920461Y4835644D01*
X25894553Y4835644D01*
X25879059Y4830564D01*
X25868645Y4825230D01*
X25858231Y4815070D01*
X25853151Y4799322D01*
X25853151Y4763000D01*
X25962117Y4880348D02*
G01*
X25962117Y4937498D01*
X25920461Y4906510D01*
X25920461Y4922004D01*
X25915381Y4932418D01*
X25910301Y4937498D01*
X25894553Y4942832D01*
X25884139Y4942832D01*
X25868645Y4937498D01*
X25858231Y4927084D01*
X25853151Y4911590D01*
X25853151Y4896096D01*
X25858231Y4880348D01*
X25863311Y4875268D01*
X25873725Y4869934D01*
X25962117Y5028938D02*
G01*
X25889473Y4977122D01*
X25889473Y5055100D01*
X25962117Y5028938D02*
G01*
X25853151Y5028938D01*
X27867315Y4763000D02*
G01*
X27758349Y4763000D01*
X27867315Y4763000D02*
G01*
X27867315Y4799322D01*
X27862235Y4815070D01*
X27851821Y4825230D01*
X27841407Y4830564D01*
X27825659Y4835644D01*
X27799751Y4835644D01*
X27784257Y4830564D01*
X27773843Y4825230D01*
X27763429Y4815070D01*
X27758349Y4799322D01*
X27758349Y4763000D01*
X27867315Y4880348D02*
G01*
X27867315Y4937498D01*
X27825659Y4906510D01*
X27825659Y4922004D01*
X27820579Y4932418D01*
X27815499Y4937498D01*
X27799751Y4942832D01*
X27789337Y4942832D01*
X27773843Y4937498D01*
X27763429Y4927084D01*
X27758349Y4911590D01*
X27758349Y4896096D01*
X27763429Y4880348D01*
X27768509Y4875268D01*
X27778923Y4869934D01*
X27867315Y5039352D02*
G01*
X27867315Y4987536D01*
X27820579Y4982202D01*
X27825659Y4987536D01*
X27830993Y5003030D01*
X27830993Y5018524D01*
X27825659Y5034272D01*
X27815499Y5044686D01*
X27799751Y5049766D01*
X27789337Y5049766D01*
X27773843Y5044686D01*
X27763429Y5034272D01*
X27758349Y5018524D01*
X27758349Y5003030D01*
X27763429Y4987536D01*
X27768509Y4982202D01*
X27778923Y4977122D01*
X12626116Y8573399D02*
G01*
X12517150Y8573399D01*
X12626116Y8573399D02*
G01*
X12626116Y8609721D01*
X12621036Y8625469D01*
X12610622Y8635629D01*
X12600208Y8640963D01*
X12584460Y8646043D01*
X12558552Y8646043D01*
X12543058Y8640963D01*
X12532644Y8635629D01*
X12522230Y8625469D01*
X12517150Y8609721D01*
X12517150Y8573399D01*
X12626116Y8742817D02*
G01*
X12626116Y8690747D01*
X12579380Y8685667D01*
X12584460Y8690747D01*
X12589794Y8706495D01*
X12589794Y8721989D01*
X12584460Y8737483D01*
X12574300Y8747897D01*
X12558552Y8753231D01*
X12548138Y8753231D01*
X12532644Y8747897D01*
X12522230Y8737483D01*
X12517150Y8721989D01*
X12517150Y8706495D01*
X12522230Y8690747D01*
X12527310Y8685667D01*
X12537724Y8680333D01*
X10720915Y8573399D02*
G01*
X10611949Y8573399D01*
X10720915Y8573399D02*
G01*
X10720915Y8609721D01*
X10715835Y8625469D01*
X10705421Y8635629D01*
X10695007Y8640963D01*
X10679259Y8646043D01*
X10653351Y8646043D01*
X10637857Y8640963D01*
X10627443Y8635629D01*
X10617029Y8625469D01*
X10611949Y8609721D01*
X10611949Y8573399D01*
X10720915Y8732403D02*
G01*
X10648271Y8680333D01*
X10648271Y8758311D01*
X10720915Y8732403D02*
G01*
X10611949Y8732403D01*
X8815715Y8573399D02*
G01*
X8706749Y8573399D01*
X8815715Y8573399D02*
G01*
X8815715Y8609721D01*
X8810635Y8625469D01*
X8800221Y8635629D01*
X8789807Y8640963D01*
X8774059Y8646043D01*
X8748151Y8646043D01*
X8732657Y8640963D01*
X8722243Y8635629D01*
X8711829Y8625469D01*
X8706749Y8609721D01*
X8706749Y8573399D01*
X8815715Y8690747D02*
G01*
X8815715Y8747897D01*
X8774059Y8716909D01*
X8774059Y8732403D01*
X8768979Y8742817D01*
X8763899Y8747897D01*
X8748151Y8753231D01*
X8737737Y8753231D01*
X8722243Y8747897D01*
X8711829Y8737483D01*
X8706749Y8721989D01*
X8706749Y8706495D01*
X8711829Y8690747D01*
X8716909Y8685667D01*
X8727323Y8680333D01*
X6910517Y8573399D02*
G01*
X6801551Y8573399D01*
X6910517Y8573399D02*
G01*
X6910517Y8609721D01*
X6905437Y8625469D01*
X6895023Y8635629D01*
X6884609Y8640963D01*
X6868861Y8646043D01*
X6842953Y8646043D01*
X6827459Y8640963D01*
X6817045Y8635629D01*
X6806631Y8625469D01*
X6801551Y8609721D01*
X6801551Y8573399D01*
X6884609Y8685667D02*
G01*
X6889689Y8685667D01*
X6900103Y8690747D01*
X6905437Y8696081D01*
X6910517Y8706495D01*
X6910517Y8727069D01*
X6905437Y8737483D01*
X6900103Y8742817D01*
X6889689Y8747897D01*
X6879275Y8747897D01*
X6868861Y8742817D01*
X6853367Y8732403D01*
X6801551Y8680333D01*
X6801551Y8753231D01*
X4878316Y8573399D02*
G01*
X4769350Y8573399D01*
X4878316Y8573399D02*
G01*
X4878316Y8609721D01*
X4873236Y8625469D01*
X4862822Y8635629D01*
X4852408Y8640963D01*
X4836660Y8646043D01*
X4810752Y8646043D01*
X4795258Y8640963D01*
X4784844Y8635629D01*
X4774430Y8625469D01*
X4769350Y8609721D01*
X4769350Y8573399D01*
X4857488Y8680333D02*
G01*
X4862822Y8690747D01*
X4878316Y8706495D01*
X4769350Y8706495D01*
X2857799Y8458083D02*
G01*
X2857799Y8567049D01*
X2857799Y8458083D02*
G01*
X2894121Y8458083D01*
X2909869Y8463163D01*
X2920029Y8473577D01*
X2925363Y8483991D01*
X2930443Y8499739D01*
X2930443Y8525647D01*
X2925363Y8541141D01*
X2920029Y8551555D01*
X2909869Y8561969D01*
X2894121Y8567049D01*
X2857799Y8567049D01*
X2995975Y8458083D02*
G01*
X2980481Y8463163D01*
X2970067Y8478911D01*
X2964733Y8504819D01*
X2964733Y8520313D01*
X2970067Y8546475D01*
X2980481Y8561969D01*
X2995975Y8567049D01*
X3006389Y8567049D01*
X3021883Y8561969D01*
X3032297Y8546475D01*
X3037631Y8520313D01*
X3037631Y8504819D01*
X3032297Y8478911D01*
X3021883Y8463163D01*
X3006389Y8458083D01*
X2995975Y8458083D01*
G36*
X2922524Y6535216D02*
G01*
X2922524Y6504736D01*
X2952038Y6504736D01*
X2952038Y6535216D01*
G37*
G36*
X2763570Y6535216D02*
G01*
X2763570Y6504736D01*
X2793034Y6504736D01*
X2793034Y6535216D01*
G37*
G36*
X4827727Y6535216D02*
G01*
X4827727Y6504736D01*
X4857242Y6504736D01*
X4857242Y6535216D01*
G37*
G36*
X4668774Y6535216D02*
G01*
X4668774Y6504736D01*
X4698238Y6504736D01*
X4698238Y6535216D01*
G37*
G36*
X6732930Y6535216D02*
G01*
X6732930Y6504736D01*
X6762445Y6504736D01*
X6762445Y6535216D01*
G37*
G36*
X6573977Y6535216D02*
G01*
X6573977Y6504736D01*
X6603441Y6504736D01*
X6603441Y6535216D01*
G37*
G36*
X8638133Y6535216D02*
G01*
X8638133Y6504736D01*
X8667648Y6504736D01*
X8667648Y6535216D01*
G37*
G36*
X8479180Y6535216D02*
G01*
X8479180Y6504736D01*
X8508644Y6504736D01*
X8508644Y6535216D01*
G37*
G36*
X10543336Y6535216D02*
G01*
X10543336Y6504736D01*
X10572851Y6504736D01*
X10572851Y6535216D01*
G37*
G36*
X10384383Y6535216D02*
G01*
X10384383Y6504736D01*
X10413847Y6504736D01*
X10413847Y6535216D01*
G37*
G36*
X12448540Y6535216D02*
G01*
X12448540Y6504736D01*
X12478054Y6504736D01*
X12478054Y6535216D01*
G37*
G36*
X12289586Y6535216D02*
G01*
X12289586Y6504736D01*
X12319050Y6504736D01*
X12319050Y6535216D01*
G37*
G36*
X18163743Y6535216D02*
G01*
X18163743Y6504736D01*
X18193258Y6504736D01*
X18193258Y6535216D01*
G37*
G36*
X18004739Y6535216D02*
G01*
X18004739Y6504736D01*
X18034254Y6504736D01*
X18034254Y6535216D01*
G37*
G36*
X20068946Y6535216D02*
G01*
X20068946Y6504736D01*
X20098461Y6504736D01*
X20098461Y6535216D01*
G37*
G36*
X19909942Y6535216D02*
G01*
X19909942Y6504736D01*
X19939457Y6504736D01*
X19939457Y6535216D01*
G37*
G36*
X21974149Y6535216D02*
G01*
X21974149Y6504736D01*
X22003613Y6504736D01*
X22003613Y6535216D01*
G37*
G36*
X21815145Y6535216D02*
G01*
X21815145Y6504736D01*
X21844660Y6504736D01*
X21844660Y6535216D01*
G37*
G36*
X23879352Y6535216D02*
G01*
X23879352Y6504736D01*
X23908816Y6504736D01*
X23908816Y6535216D01*
G37*
G36*
X23720348Y6535216D02*
G01*
X23720348Y6504736D01*
X23749863Y6504736D01*
X23749863Y6535216D01*
G37*
G36*
X25784556Y6535216D02*
G01*
X25784556Y6504736D01*
X25814020Y6504736D01*
X25814020Y6535216D01*
G37*
G36*
X25625552Y6535216D02*
G01*
X25625552Y6504736D01*
X25655066Y6504736D01*
X25655066Y6535216D01*
G37*
G36*
X27689759Y6535216D02*
G01*
X27689759Y6504736D01*
X27719223Y6504736D01*
X27719223Y6535216D01*
G37*
G36*
X27530755Y6535216D02*
G01*
X27530755Y6504736D01*
X27560270Y6504736D01*
X27560270Y6535216D01*
G37*
G36*
X2922524Y2724810D02*
G01*
X2922524Y2694330D01*
X2952038Y2694330D01*
X2952038Y2724810D01*
G37*
G36*
X2763570Y2724810D02*
G01*
X2763570Y2694330D01*
X2793034Y2694330D01*
X2793034Y2724810D01*
G37*
G36*
X4827727Y2724810D02*
G01*
X4827727Y2694330D01*
X4857242Y2694330D01*
X4857242Y2724810D01*
G37*
G36*
X4668774Y2724810D02*
G01*
X4668774Y2694330D01*
X4698238Y2694330D01*
X4698238Y2724810D01*
G37*
G36*
X6732930Y2724810D02*
G01*
X6732930Y2694330D01*
X6762445Y2694330D01*
X6762445Y2724810D01*
G37*
G36*
X6573977Y2724810D02*
G01*
X6573977Y2694330D01*
X6603441Y2694330D01*
X6603441Y2724810D01*
G37*
G36*
X8638133Y2724810D02*
G01*
X8638133Y2694330D01*
X8667648Y2694330D01*
X8667648Y2724810D01*
G37*
G36*
X8479180Y2724810D02*
G01*
X8479180Y2694330D01*
X8508644Y2694330D01*
X8508644Y2724810D01*
G37*
G36*
X10543336Y2724810D02*
G01*
X10543336Y2694330D01*
X10572851Y2694330D01*
X10572851Y2724810D01*
G37*
G36*
X10384383Y2724810D02*
G01*
X10384383Y2694330D01*
X10413847Y2694330D01*
X10413847Y2724810D01*
G37*
G36*
X12448540Y2724810D02*
G01*
X12448540Y2694330D01*
X12478054Y2694330D01*
X12478054Y2724810D01*
G37*
G36*
X12289586Y2724810D02*
G01*
X12289586Y2694330D01*
X12319050Y2694330D01*
X12319050Y2724810D01*
G37*
G36*
X18163743Y2724810D02*
G01*
X18163743Y2694330D01*
X18193258Y2694330D01*
X18193258Y2724810D01*
G37*
G36*
X18004739Y2724810D02*
G01*
X18004739Y2694330D01*
X18034254Y2694330D01*
X18034254Y2724810D01*
G37*
G36*
X20068946Y2724810D02*
G01*
X20068946Y2694330D01*
X20098461Y2694330D01*
X20098461Y2724810D01*
G37*
G36*
X19909942Y2724810D02*
G01*
X19909942Y2694330D01*
X19939457Y2694330D01*
X19939457Y2724810D01*
G37*
G36*
X21974149Y2724810D02*
G01*
X21974149Y2694330D01*
X22003613Y2694330D01*
X22003613Y2724810D01*
G37*
G36*
X21815145Y2724810D02*
G01*
X21815145Y2694330D01*
X21844660Y2694330D01*
X21844660Y2724810D01*
G37*
G36*
X23879352Y2724810D02*
G01*
X23879352Y2694330D01*
X23908816Y2694330D01*
X23908816Y2724810D01*
G37*
G36*
X23720348Y2724810D02*
G01*
X23720348Y2694330D01*
X23749863Y2694330D01*
X23749863Y2724810D01*
G37*
G36*
X25784556Y2724810D02*
G01*
X25784556Y2694330D01*
X25814020Y2694330D01*
X25814020Y2724810D01*
G37*
G36*
X25625552Y2724810D02*
G01*
X25625552Y2694330D01*
X25655066Y2694330D01*
X25655066Y2724810D01*
G37*
G36*
X27689759Y2724810D02*
G01*
X27689759Y2694330D01*
X27719223Y2694330D01*
X27719223Y2724810D01*
G37*
G36*
X27530755Y2724810D02*
G01*
X27530755Y2694330D01*
X27560270Y2694330D01*
X27560270Y2724810D01*
G37*
G36*
X18164352Y8440420D02*
G01*
X18164352Y8409940D01*
X18193816Y8409940D01*
X18193816Y8440420D01*
G37*
G36*
X18005348Y8440420D02*
G01*
X18005348Y8409940D01*
X18034863Y8409940D01*
X18034863Y8440420D01*
G37*
G36*
X20068946Y8440420D02*
G01*
X20068946Y8409940D01*
X20098461Y8409940D01*
X20098461Y8440420D01*
G37*
G36*
X19909942Y8440420D02*
G01*
X19909942Y8409940D01*
X19939457Y8409940D01*
X19939457Y8440420D01*
G37*
G36*
X21974149Y8440420D02*
G01*
X21974149Y8409940D01*
X22003613Y8409940D01*
X22003613Y8440420D01*
G37*
G36*
X21815145Y8440420D02*
G01*
X21815145Y8409940D01*
X21844660Y8409940D01*
X21844660Y8440420D01*
G37*
G36*
X23879962Y8440420D02*
G01*
X23879962Y8409940D01*
X23909426Y8409940D01*
X23909426Y8440420D01*
G37*
G36*
X23720958Y8440420D02*
G01*
X23720958Y8409940D01*
X23750473Y8409940D01*
X23750473Y8440420D01*
G37*
G36*
X25784556Y8440420D02*
G01*
X25784556Y8409940D01*
X25814020Y8409940D01*
X25814020Y8440420D01*
G37*
G36*
X25625552Y8440420D02*
G01*
X25625552Y8409940D01*
X25655066Y8409940D01*
X25655066Y8440420D01*
G37*
G36*
X27689759Y8440420D02*
G01*
X27689759Y8409940D01*
X27719223Y8409940D01*
X27719223Y8440420D01*
G37*
G36*
X27530755Y8440420D02*
G01*
X27530755Y8409940D01*
X27560270Y8409940D01*
X27560270Y8440420D01*
G37*
G36*
X2922524Y4630013D02*
G01*
X2922524Y4599533D01*
X2952038Y4599533D01*
X2952038Y4630013D01*
G37*
G36*
X2763570Y4630013D02*
G01*
X2763570Y4599533D01*
X2793034Y4599533D01*
X2793034Y4630013D01*
G37*
G36*
X4827727Y4630013D02*
G01*
X4827727Y4599533D01*
X4857242Y4599533D01*
X4857242Y4630013D01*
G37*
G36*
X4668774Y4630013D02*
G01*
X4668774Y4599533D01*
X4698238Y4599533D01*
X4698238Y4630013D01*
G37*
G36*
X6732930Y4630013D02*
G01*
X6732930Y4599533D01*
X6762445Y4599533D01*
X6762445Y4630013D01*
G37*
G36*
X6573977Y4630013D02*
G01*
X6573977Y4599533D01*
X6603441Y4599533D01*
X6603441Y4630013D01*
G37*
G36*
X8638133Y4630013D02*
G01*
X8638133Y4599533D01*
X8667648Y4599533D01*
X8667648Y4630013D01*
G37*
G36*
X8479180Y4630013D02*
G01*
X8479180Y4599533D01*
X8508644Y4599533D01*
X8508644Y4630013D01*
G37*
G36*
X10543336Y4630013D02*
G01*
X10543336Y4599533D01*
X10572851Y4599533D01*
X10572851Y4630013D01*
G37*
G36*
X10384383Y4630013D02*
G01*
X10384383Y4599533D01*
X10413847Y4599533D01*
X10413847Y4630013D01*
G37*
G36*
X12448540Y4630013D02*
G01*
X12448540Y4599533D01*
X12478054Y4599533D01*
X12478054Y4630013D01*
G37*
G36*
X12289586Y4630013D02*
G01*
X12289586Y4599533D01*
X12319050Y4599533D01*
X12319050Y4630013D01*
G37*
G36*
X18163743Y4630013D02*
G01*
X18163743Y4599533D01*
X18193258Y4599533D01*
X18193258Y4630013D01*
G37*
G36*
X18004739Y4630013D02*
G01*
X18004739Y4599533D01*
X18034254Y4599533D01*
X18034254Y4630013D01*
G37*
G36*
X20068946Y4630013D02*
G01*
X20068946Y4599533D01*
X20098461Y4599533D01*
X20098461Y4630013D01*
G37*
G36*
X19909942Y4630013D02*
G01*
X19909942Y4599533D01*
X19939457Y4599533D01*
X19939457Y4630013D01*
G37*
G36*
X21974149Y4630013D02*
G01*
X21974149Y4599533D01*
X22003613Y4599533D01*
X22003613Y4630013D01*
G37*
G36*
X21815145Y4630013D02*
G01*
X21815145Y4599533D01*
X21844660Y4599533D01*
X21844660Y4630013D01*
G37*
G36*
X23879352Y4630013D02*
G01*
X23879352Y4599533D01*
X23908816Y4599533D01*
X23908816Y4630013D01*
G37*
G36*
X23720348Y4630013D02*
G01*
X23720348Y4599533D01*
X23749863Y4599533D01*
X23749863Y4630013D01*
G37*
G36*
X25784556Y4630013D02*
G01*
X25784556Y4599533D01*
X25814020Y4599533D01*
X25814020Y4630013D01*
G37*
G36*
X25625552Y4630013D02*
G01*
X25625552Y4599533D01*
X25655066Y4599533D01*
X25655066Y4630013D01*
G37*
G36*
X27689759Y4630013D02*
G01*
X27689759Y4599533D01*
X27719223Y4599533D01*
X27719223Y4630013D01*
G37*
G36*
X27530755Y4630013D02*
G01*
X27530755Y4599533D01*
X27560270Y4599533D01*
X27560270Y4630013D01*
G37*
G36*
X12448540Y8440420D02*
G01*
X12448540Y8409940D01*
X12478054Y8409940D01*
X12478054Y8440420D01*
G37*
G36*
X12289586Y8440420D02*
G01*
X12289586Y8409940D01*
X12319050Y8409940D01*
X12319050Y8440420D01*
G37*
G36*
X10543336Y8440420D02*
G01*
X10543336Y8409940D01*
X10572851Y8409940D01*
X10572851Y8440420D01*
G37*
G36*
X10384383Y8440420D02*
G01*
X10384383Y8409940D01*
X10413847Y8409940D01*
X10413847Y8440420D01*
G37*
G36*
X8638133Y8440420D02*
G01*
X8638133Y8409940D01*
X8667648Y8409940D01*
X8667648Y8440420D01*
G37*
G36*
X8479180Y8440420D02*
G01*
X8479180Y8409940D01*
X8508644Y8409940D01*
X8508644Y8440420D01*
G37*
G36*
X6732930Y8440420D02*
G01*
X6732930Y8409940D01*
X6762445Y8409940D01*
X6762445Y8440420D01*
G37*
G36*
X6573977Y8440420D02*
G01*
X6573977Y8409940D01*
X6603441Y8409940D01*
X6603441Y8440420D01*
G37*
G36*
X4827727Y8440420D02*
G01*
X4827727Y8409940D01*
X4857242Y8409940D01*
X4857242Y8440420D01*
G37*
G36*
X4668774Y8440420D02*
G01*
X4668774Y8409940D01*
X4698238Y8409940D01*
X4698238Y8440420D01*
G37*
G36*
X2922524Y8440420D02*
G01*
X2922524Y8409940D01*
X2952038Y8409940D01*
X2952038Y8440420D01*
G37*
G36*
X2763570Y8440420D02*
G01*
X2763570Y8409940D01*
X2793034Y8409940D01*
X2793034Y8440420D01*
G37*
X2944418Y6527584D02*
G01*
X2944418Y6808817D01*
X2944418Y6808817D02*
G01*
X2927619Y6808817D01*
X2771180Y6527584D02*
G01*
X2771180Y6808817D01*
X2771180Y6808817D02*
G01*
X2787980Y6808817D01*
X2944418Y6563271D02*
G01*
X2771180Y6563271D01*
X4849619Y6527584D02*
G01*
X4849619Y6808817D01*
X4849619Y6808817D02*
G01*
X4832819Y6808817D01*
X4676381Y6527584D02*
G01*
X4676381Y6808817D01*
X4676381Y6808817D02*
G01*
X4693180Y6808817D01*
X4849619Y6563271D02*
G01*
X4676381Y6563271D01*
X6754820Y6527584D02*
G01*
X6754820Y6808817D01*
X6754820Y6808817D02*
G01*
X6738020Y6808817D01*
X6581581Y6527584D02*
G01*
X6581581Y6808817D01*
X6581581Y6808817D02*
G01*
X6598381Y6808817D01*
X6754820Y6563271D02*
G01*
X6581581Y6563271D01*
X8660018Y6527584D02*
G01*
X8660018Y6808817D01*
X8660018Y6808817D02*
G01*
X8643218Y6808817D01*
X8486780Y6527584D02*
G01*
X8486780Y6808817D01*
X8486780Y6808817D02*
G01*
X8503579Y6808817D01*
X8660018Y6563271D02*
G01*
X8486780Y6563271D01*
X10565218Y6527584D02*
G01*
X10565218Y6808817D01*
X10565218Y6808817D02*
G01*
X10548419Y6808817D01*
X10391980Y6527584D02*
G01*
X10391980Y6808817D01*
X10391980Y6808817D02*
G01*
X10408780Y6808817D01*
X10565218Y6563271D02*
G01*
X10391980Y6563271D01*
X12470419Y6527584D02*
G01*
X12470419Y6808817D01*
X12470419Y6808817D02*
G01*
X12453620Y6808817D01*
X12297181Y6527584D02*
G01*
X12297181Y6808817D01*
X12297181Y6808817D02*
G01*
X12313980Y6808817D01*
X12470419Y6563271D02*
G01*
X12297181Y6563271D01*
X18185620Y6527584D02*
G01*
X18185620Y6808817D01*
X18185620Y6808817D02*
G01*
X18168820Y6808817D01*
X18012382Y6527584D02*
G01*
X18012382Y6808817D01*
X18012382Y6808817D02*
G01*
X18029181Y6808817D01*
X18185620Y6563271D02*
G01*
X18012382Y6563271D01*
X20090818Y6527584D02*
G01*
X20090818Y6808817D01*
X20090818Y6808817D02*
G01*
X20074018Y6808817D01*
X19917580Y6527584D02*
G01*
X19917580Y6808817D01*
X19917580Y6808817D02*
G01*
X19934379Y6808817D01*
X20090818Y6563271D02*
G01*
X19917580Y6563271D01*
X21996018Y6527584D02*
G01*
X21996018Y6808817D01*
X21996018Y6808817D02*
G01*
X21979219Y6808817D01*
X21822780Y6527584D02*
G01*
X21822780Y6808817D01*
X21822780Y6808817D02*
G01*
X21839580Y6808817D01*
X21996018Y6563271D02*
G01*
X21822780Y6563271D01*
X23901219Y6527584D02*
G01*
X23901219Y6808817D01*
X23901219Y6808817D02*
G01*
X23884420Y6808817D01*
X23727981Y6527584D02*
G01*
X23727981Y6808817D01*
X23727981Y6808817D02*
G01*
X23744781Y6808817D01*
X23901219Y6563271D02*
G01*
X23727981Y6563271D01*
X25806420Y6527584D02*
G01*
X25806420Y6808817D01*
X25806420Y6808817D02*
G01*
X25789620Y6808817D01*
X25633182Y6527584D02*
G01*
X25633182Y6808817D01*
X25633182Y6808817D02*
G01*
X25649981Y6808817D01*
X25806420Y6563271D02*
G01*
X25633182Y6563271D01*
X27711618Y6527584D02*
G01*
X27711618Y6808817D01*
X27711618Y6808817D02*
G01*
X27694818Y6808817D01*
X27538380Y6527584D02*
G01*
X27538380Y6808817D01*
X27538380Y6808817D02*
G01*
X27555179Y6808817D01*
X27711618Y6563271D02*
G01*
X27538380Y6563271D01*
X2944418Y2717182D02*
G01*
X2944418Y2998416D01*
X2944418Y2998416D02*
G01*
X2927619Y2998416D01*
X2771180Y2717182D02*
G01*
X2771180Y2998416D01*
X2771180Y2998416D02*
G01*
X2787980Y2998416D01*
X2944418Y2752869D02*
G01*
X2771180Y2752869D01*
X4849619Y2717182D02*
G01*
X4849619Y2998416D01*
X4849619Y2998416D02*
G01*
X4832819Y2998416D01*
X4676381Y2717182D02*
G01*
X4676381Y2998416D01*
X4676381Y2998416D02*
G01*
X4693180Y2998416D01*
X4849619Y2752869D02*
G01*
X4676381Y2752869D01*
X6754820Y2717182D02*
G01*
X6754820Y2998416D01*
X6754820Y2998416D02*
G01*
X6738020Y2998416D01*
X6581581Y2717182D02*
G01*
X6581581Y2998416D01*
X6581581Y2998416D02*
G01*
X6598381Y2998416D01*
X6754820Y2752869D02*
G01*
X6581581Y2752869D01*
X8660018Y2717182D02*
G01*
X8660018Y2998416D01*
X8660018Y2998416D02*
G01*
X8643218Y2998416D01*
X8486780Y2717182D02*
G01*
X8486780Y2998416D01*
X8486780Y2998416D02*
G01*
X8503579Y2998416D01*
X8660018Y2752869D02*
G01*
X8486780Y2752869D01*
X10565218Y2717182D02*
G01*
X10565218Y2998416D01*
X10565218Y2998416D02*
G01*
X10548419Y2998416D01*
X10391980Y2717182D02*
G01*
X10391980Y2998416D01*
X10391980Y2998416D02*
G01*
X10408780Y2998416D01*
X10565218Y2752869D02*
G01*
X10391980Y2752869D01*
X12470419Y2717182D02*
G01*
X12470419Y2998416D01*
X12470419Y2998416D02*
G01*
X12453620Y2998416D01*
X12297181Y2717182D02*
G01*
X12297181Y2998416D01*
X12297181Y2998416D02*
G01*
X12313980Y2998416D01*
X12470419Y2752869D02*
G01*
X12297181Y2752869D01*
X18185620Y2717182D02*
G01*
X18185620Y2998416D01*
X18185620Y2998416D02*
G01*
X18168820Y2998416D01*
X18012382Y2717182D02*
G01*
X18012382Y2998416D01*
X18012382Y2998416D02*
G01*
X18029181Y2998416D01*
X18185620Y2752869D02*
G01*
X18012382Y2752869D01*
X20090818Y2717182D02*
G01*
X20090818Y2998416D01*
X20090818Y2998416D02*
G01*
X20074018Y2998416D01*
X19917580Y2717182D02*
G01*
X19917580Y2998416D01*
X19917580Y2998416D02*
G01*
X19934379Y2998416D01*
X20090818Y2752869D02*
G01*
X19917580Y2752869D01*
X21996018Y2717182D02*
G01*
X21996018Y2998416D01*
X21996018Y2998416D02*
G01*
X21979219Y2998416D01*
X21822780Y2717182D02*
G01*
X21822780Y2998416D01*
X21822780Y2998416D02*
G01*
X21839580Y2998416D01*
X21996018Y2752869D02*
G01*
X21822780Y2752869D01*
X23901219Y2717182D02*
G01*
X23901219Y2998416D01*
X23901219Y2998416D02*
G01*
X23884420Y2998416D01*
X23727981Y2717182D02*
G01*
X23727981Y2998416D01*
X23727981Y2998416D02*
G01*
X23744781Y2998416D01*
X23901219Y2752869D02*
G01*
X23727981Y2752869D01*
X25806420Y2717182D02*
G01*
X25806420Y2998416D01*
X25806420Y2998416D02*
G01*
X25789620Y2998416D01*
X25633182Y2717182D02*
G01*
X25633182Y2998416D01*
X25633182Y2998416D02*
G01*
X25649981Y2998416D01*
X25806420Y2752869D02*
G01*
X25633182Y2752869D01*
X27711618Y2717182D02*
G01*
X27711618Y2998416D01*
X27711618Y2998416D02*
G01*
X27694818Y2998416D01*
X27538380Y2717182D02*
G01*
X27538380Y2998416D01*
X27538380Y2998416D02*
G01*
X27555179Y2998416D01*
X27711618Y2752869D02*
G01*
X27538380Y2752869D01*
X18186219Y8432782D02*
G01*
X18186219Y8714016D01*
X18186219Y8714016D02*
G01*
X18169420Y8714016D01*
X18012981Y8432782D02*
G01*
X18012981Y8714016D01*
X18012981Y8714016D02*
G01*
X18029781Y8714016D01*
X18186219Y8468469D02*
G01*
X18012981Y8468469D01*
X20090818Y8432782D02*
G01*
X20090818Y8714016D01*
X20090818Y8714016D02*
G01*
X20074018Y8714016D01*
X19917580Y8432782D02*
G01*
X19917580Y8714016D01*
X19917580Y8714016D02*
G01*
X19934379Y8714016D01*
X20090818Y8468469D02*
G01*
X19917580Y8468469D01*
X21996018Y8432782D02*
G01*
X21996018Y8714016D01*
X21996018Y8714016D02*
G01*
X21979219Y8714016D01*
X21822780Y8432782D02*
G01*
X21822780Y8714016D01*
X21822780Y8714016D02*
G01*
X21839580Y8714016D01*
X21996018Y8468469D02*
G01*
X21822780Y8468469D01*
X23901819Y8432782D02*
G01*
X23901819Y8714016D01*
X23901819Y8714016D02*
G01*
X23885019Y8714016D01*
X23728580Y8432782D02*
G01*
X23728580Y8714016D01*
X23728580Y8714016D02*
G01*
X23745380Y8714016D01*
X23901819Y8468469D02*
G01*
X23728580Y8468469D01*
X25806420Y8432782D02*
G01*
X25806420Y8714016D01*
X25806420Y8714016D02*
G01*
X25789620Y8714016D01*
X25633182Y8432782D02*
G01*
X25633182Y8714016D01*
X25633182Y8714016D02*
G01*
X25649981Y8714016D01*
X25806420Y8468469D02*
G01*
X25633182Y8468469D01*
X27711618Y8432782D02*
G01*
X27711618Y8714016D01*
X27711618Y8714016D02*
G01*
X27694818Y8714016D01*
X27538380Y8432782D02*
G01*
X27538380Y8714016D01*
X27538380Y8714016D02*
G01*
X27555179Y8714016D01*
X27711618Y8468469D02*
G01*
X27538380Y8468469D01*
X2944418Y4622383D02*
G01*
X2944418Y4903617D01*
X2944418Y4903617D02*
G01*
X2927619Y4903617D01*
X2771180Y4622383D02*
G01*
X2771180Y4903617D01*
X2771180Y4903617D02*
G01*
X2787980Y4903617D01*
X2944418Y4658070D02*
G01*
X2771180Y4658070D01*
X4849619Y4622383D02*
G01*
X4849619Y4903617D01*
X4849619Y4903617D02*
G01*
X4832819Y4903617D01*
X4676381Y4622383D02*
G01*
X4676381Y4903617D01*
X4676381Y4903617D02*
G01*
X4693180Y4903617D01*
X4849619Y4658070D02*
G01*
X4676381Y4658070D01*
X6754820Y4622383D02*
G01*
X6754820Y4903617D01*
X6754820Y4903617D02*
G01*
X6738020Y4903617D01*
X6581581Y4622383D02*
G01*
X6581581Y4903617D01*
X6581581Y4903617D02*
G01*
X6598381Y4903617D01*
X6754820Y4658070D02*
G01*
X6581581Y4658070D01*
X8660018Y4622383D02*
G01*
X8660018Y4903617D01*
X8660018Y4903617D02*
G01*
X8643218Y4903617D01*
X8486780Y4622383D02*
G01*
X8486780Y4903617D01*
X8486780Y4903617D02*
G01*
X8503579Y4903617D01*
X8660018Y4658070D02*
G01*
X8486780Y4658070D01*
X10565218Y4622383D02*
G01*
X10565218Y4903617D01*
X10565218Y4903617D02*
G01*
X10548419Y4903617D01*
X10391980Y4622383D02*
G01*
X10391980Y4903617D01*
X10391980Y4903617D02*
G01*
X10408780Y4903617D01*
X10565218Y4658070D02*
G01*
X10391980Y4658070D01*
X12470419Y4622383D02*
G01*
X12470419Y4903617D01*
X12470419Y4903617D02*
G01*
X12453620Y4903617D01*
X12297181Y4622383D02*
G01*
X12297181Y4903617D01*
X12297181Y4903617D02*
G01*
X12313980Y4903617D01*
X12470419Y4658070D02*
G01*
X12297181Y4658070D01*
X18185620Y4622383D02*
G01*
X18185620Y4903617D01*
X18185620Y4903617D02*
G01*
X18168820Y4903617D01*
X18012382Y4622383D02*
G01*
X18012382Y4903617D01*
X18012382Y4903617D02*
G01*
X18029181Y4903617D01*
X18185620Y4658070D02*
G01*
X18012382Y4658070D01*
X20090818Y4622383D02*
G01*
X20090818Y4903617D01*
X20090818Y4903617D02*
G01*
X20074018Y4903617D01*
X19917580Y4622383D02*
G01*
X19917580Y4903617D01*
X19917580Y4903617D02*
G01*
X19934379Y4903617D01*
X20090818Y4658070D02*
G01*
X19917580Y4658070D01*
X21996018Y4622383D02*
G01*
X21996018Y4903617D01*
X21996018Y4903617D02*
G01*
X21979219Y4903617D01*
X21822780Y4622383D02*
G01*
X21822780Y4903617D01*
X21822780Y4903617D02*
G01*
X21839580Y4903617D01*
X21996018Y4658070D02*
G01*
X21822780Y4658070D01*
X23901219Y4622383D02*
G01*
X23901219Y4903617D01*
X23901219Y4903617D02*
G01*
X23884420Y4903617D01*
X23727981Y4622383D02*
G01*
X23727981Y4903617D01*
X23727981Y4903617D02*
G01*
X23744781Y4903617D01*
X23901219Y4658070D02*
G01*
X23727981Y4658070D01*
X25806420Y4622383D02*
G01*
X25806420Y4903617D01*
X25806420Y4903617D02*
G01*
X25789620Y4903617D01*
X25633182Y4622383D02*
G01*
X25633182Y4903617D01*
X25633182Y4903617D02*
G01*
X25649981Y4903617D01*
X25806420Y4658070D02*
G01*
X25633182Y4658070D01*
X27711618Y4622383D02*
G01*
X27711618Y4903617D01*
X27711618Y4903617D02*
G01*
X27694818Y4903617D01*
X27538380Y4622383D02*
G01*
X27538380Y4903617D01*
X27538380Y4903617D02*
G01*
X27555179Y4903617D01*
X27711618Y4658070D02*
G01*
X27538380Y4658070D01*
X12470419Y8432782D02*
G01*
X12470419Y8714016D01*
X12470419Y8714016D02*
G01*
X12453620Y8714016D01*
X12297181Y8432782D02*
G01*
X12297181Y8714016D01*
X12297181Y8714016D02*
G01*
X12313980Y8714016D01*
X12470419Y8468469D02*
G01*
X12297181Y8468469D01*
X10565218Y8432782D02*
G01*
X10565218Y8714016D01*
X10565218Y8714016D02*
G01*
X10548419Y8714016D01*
X10391980Y8432782D02*
G01*
X10391980Y8714016D01*
X10391980Y8714016D02*
G01*
X10408780Y8714016D01*
X10565218Y8468469D02*
G01*
X10391980Y8468469D01*
X8660018Y8432782D02*
G01*
X8660018Y8714016D01*
X8660018Y8714016D02*
G01*
X8643218Y8714016D01*
X8486780Y8432782D02*
G01*
X8486780Y8714016D01*
X8486780Y8714016D02*
G01*
X8503579Y8714016D01*
X8660018Y8468469D02*
G01*
X8486780Y8468469D01*
X6754820Y8432782D02*
G01*
X6754820Y8714016D01*
X6754820Y8714016D02*
G01*
X6738020Y8714016D01*
X6581581Y8432782D02*
G01*
X6581581Y8714016D01*
X6581581Y8714016D02*
G01*
X6598381Y8714016D01*
X6754820Y8468469D02*
G01*
X6581581Y8468469D01*
X4849619Y8432782D02*
G01*
X4849619Y8714016D01*
X4849619Y8714016D02*
G01*
X4832819Y8714016D01*
X4676381Y8432782D02*
G01*
X4676381Y8714016D01*
X4676381Y8714016D02*
G01*
X4693180Y8714016D01*
X4849619Y8468469D02*
G01*
X4676381Y8468469D01*
X2944418Y8432782D02*
G01*
X2944418Y8714016D01*
X2944418Y8714016D02*
G01*
X2927619Y8714016D01*
X2771180Y8432782D02*
G01*
X2771180Y8714016D01*
X2771180Y8714016D02*
G01*
X2787980Y8714016D01*
X2944418Y8468469D02*
G01*
X2771180Y8468469D01*
M02*
