G04 Layer: BottomSolderMaskLayer*
G04 EasyEDA v6.5.22, 2022-11-03 13:25:14*
G04 daeccbeab38c4538aae3d189e396c967,14fd66e66b1542709ab820776f733a5e,10*
G04 Gerber Generator version 0.2*
G04 Scale: 100 percent, Rotated: No, Reflected: No *
G04 Dimensions in millimeters *
G04 leading zeros omitted , absolute positions ,4 integer and 5 decimal *
%FSLAX45Y45*%
%MOMM*%

%AMMACRO1*1,1,$1,$2,$3*1,1,$1,$4,$5*1,1,$1,0-$2,0-$3*1,1,$1,0-$4,0-$5*20,1,$1,$2,$3,$4,$5,0*20,1,$1,$4,$5,0-$2,0-$3,0*20,1,$1,0-$2,0-$3,0-$4,0-$5,0*20,1,$1,0-$4,0-$5,$2,$3,0*4,1,4,$2,$3,$4,$5,0-$2,0-$3,0-$4,0-$5,$2,$3,0*%
%ADD10MACRO1,0.1016X0.575X-0.475X0.575X0.475*%
%ADD11C,1.7272*%
%ADD12MACRO1,0.2032X-0.762X0.762X0.762X0.762*%

%LPD*%
D10*
G01*
X2857799Y6837441D03*
G01*
X2857799Y6498960D03*
G01*
X4763000Y6837441D03*
G01*
X4763000Y6498960D03*
G01*
X6668201Y6837441D03*
G01*
X6668201Y6498960D03*
G01*
X8573399Y6837441D03*
G01*
X8573399Y6498960D03*
G01*
X10478599Y6837441D03*
G01*
X10478599Y6498960D03*
G01*
X12383800Y6837441D03*
G01*
X12383800Y6498960D03*
G01*
X18099001Y6837441D03*
G01*
X18099001Y6498960D03*
G01*
X20004199Y6837441D03*
G01*
X20004199Y6498960D03*
G01*
X21909399Y6837441D03*
G01*
X21909399Y6498960D03*
G01*
X23814600Y6837441D03*
G01*
X23814600Y6498960D03*
G01*
X25719801Y6837441D03*
G01*
X25719801Y6498960D03*
G01*
X27624999Y6837441D03*
G01*
X27624999Y6498960D03*
G01*
X2857799Y3027039D03*
G01*
X2857799Y2688559D03*
G01*
X4763000Y3027039D03*
G01*
X4763000Y2688559D03*
G01*
X6668201Y3027039D03*
G01*
X6668201Y2688559D03*
G01*
X8573399Y3027039D03*
G01*
X8573399Y2688559D03*
G01*
X10478599Y3027039D03*
G01*
X10478599Y2688559D03*
G01*
X12383800Y3027039D03*
G01*
X12383800Y2688559D03*
G01*
X18099001Y3027039D03*
G01*
X18099001Y2688559D03*
G01*
X20004199Y3027039D03*
G01*
X20004199Y2688559D03*
G01*
X21909399Y3027039D03*
G01*
X21909399Y2688559D03*
G01*
X23814600Y3027039D03*
G01*
X23814600Y2688559D03*
G01*
X25719801Y3027039D03*
G01*
X25719801Y2688559D03*
G01*
X27624999Y3027039D03*
G01*
X27624999Y2688559D03*
G01*
X18099600Y8742639D03*
G01*
X18099600Y8404158D03*
G01*
X20004199Y8742639D03*
G01*
X20004199Y8404158D03*
G01*
X21909399Y8742639D03*
G01*
X21909399Y8404158D03*
G01*
X23815200Y8742639D03*
G01*
X23815200Y8404158D03*
G01*
X25719801Y8742639D03*
G01*
X25719801Y8404158D03*
G01*
X27624999Y8742639D03*
G01*
X27624999Y8404158D03*
G01*
X2857799Y4932240D03*
G01*
X2857799Y4593760D03*
G01*
X4763000Y4932240D03*
G01*
X4763000Y4593760D03*
G01*
X6668201Y4932240D03*
G01*
X6668201Y4593760D03*
G01*
X8573399Y4932240D03*
G01*
X8573399Y4593760D03*
G01*
X10478599Y4932240D03*
G01*
X10478599Y4593760D03*
G01*
X12383800Y4932240D03*
G01*
X12383800Y4593760D03*
G01*
X18099001Y4932240D03*
G01*
X18099001Y4593760D03*
G01*
X20004199Y4932240D03*
G01*
X20004199Y4593760D03*
G01*
X21909399Y4932240D03*
G01*
X21909399Y4593760D03*
G01*
X23814600Y4932240D03*
G01*
X23814600Y4593760D03*
G01*
X25719801Y4932240D03*
G01*
X25719801Y4593760D03*
G01*
X27624999Y4932240D03*
G01*
X27624999Y4593760D03*
G01*
X12383800Y8742639D03*
G01*
X12383800Y8404158D03*
G01*
X10478599Y8742639D03*
G01*
X10478599Y8404158D03*
G01*
X8573399Y8742639D03*
G01*
X8573399Y8404158D03*
G01*
X6668201Y8742639D03*
G01*
X6668201Y8404158D03*
G01*
X4763000Y8742639D03*
G01*
X4763000Y8404158D03*
G01*
X2857799Y8742639D03*
G01*
X2857799Y8404158D03*
D11*
G01*
X1905000Y5125008D03*
G01*
X2404999Y5334990D03*
G01*
X3810000Y5125008D03*
G01*
X4309999Y5334990D03*
G01*
X5715000Y5125008D03*
G01*
X6214999Y5334990D03*
G01*
X7620000Y5125008D03*
G01*
X8119999Y5334990D03*
G01*
X9525000Y5125008D03*
G01*
X10024999Y5334990D03*
G01*
X11430000Y5125008D03*
G01*
X11929999Y5334990D03*
G01*
X17145000Y5125008D03*
G01*
X17644999Y5334990D03*
G01*
X19050000Y5125008D03*
G01*
X19549999Y5334990D03*
G01*
X20955000Y5125008D03*
G01*
X21454999Y5334990D03*
G01*
X22860000Y5125008D03*
G01*
X23359999Y5334990D03*
G01*
X24765000Y5125008D03*
G01*
X25264999Y5334990D03*
G01*
X26670000Y5125008D03*
G01*
X27169999Y5334990D03*
G01*
X1905000Y8935008D03*
G01*
X2404999Y9144990D03*
G01*
X3810000Y8935008D03*
G01*
X4309999Y9144990D03*
G01*
X5716803Y8938005D03*
G01*
X6216802Y9147987D03*
G01*
X7620812Y8935999D03*
G01*
X8120811Y9145981D03*
G01*
X9525990Y8935999D03*
G01*
X10025989Y9145981D03*
G01*
X11430000Y8935008D03*
G01*
X11929999Y9144990D03*
G01*
X17145000Y8935008D03*
G01*
X17644999Y9144990D03*
G01*
X19050000Y8935008D03*
G01*
X19549999Y9144990D03*
G01*
X20955000Y8935008D03*
G01*
X21454999Y9144990D03*
G01*
X22860000Y8935008D03*
G01*
X23359999Y9144990D03*
G01*
X24765000Y8935008D03*
G01*
X25264999Y9144990D03*
G01*
X26670000Y8935008D03*
G01*
X27169999Y9144990D03*
G01*
X1905000Y7030008D03*
G01*
X2404999Y7239990D03*
G01*
X3810000Y7030008D03*
G01*
X4309999Y7239990D03*
G01*
X5715000Y7030008D03*
G01*
X6214999Y7239990D03*
G01*
X7620000Y7030008D03*
G01*
X8119999Y7239990D03*
G01*
X9525000Y7030008D03*
G01*
X10024999Y7239990D03*
G01*
X11430000Y7030008D03*
G01*
X11929999Y7239990D03*
G01*
X17145000Y7030008D03*
G01*
X17644999Y7239990D03*
G01*
X19050000Y7030008D03*
G01*
X19549999Y7239990D03*
G01*
X20955000Y7030008D03*
G01*
X21454999Y7239990D03*
G01*
X22860000Y7030008D03*
G01*
X23359999Y7239990D03*
G01*
X24765000Y7030008D03*
G01*
X25264999Y7239990D03*
G01*
X26670000Y7030008D03*
G01*
X27169999Y7239990D03*
G01*
X1905000Y3220008D03*
G01*
X2404999Y3429990D03*
G01*
X3810000Y3220008D03*
G01*
X4309999Y3429990D03*
G01*
X5715000Y3220008D03*
G01*
X6214999Y3429990D03*
G01*
X7620000Y3220008D03*
G01*
X8119999Y3429990D03*
G01*
X9525000Y3220008D03*
G01*
X10024999Y3429990D03*
G01*
X11430000Y3220008D03*
G01*
X11929999Y3429990D03*
G01*
X17145000Y3220008D03*
G01*
X17644999Y3429990D03*
G01*
X19050000Y3220008D03*
G01*
X19549999Y3429990D03*
G01*
X20955000Y3220008D03*
G01*
X21454999Y3429990D03*
G01*
X22860000Y3220008D03*
G01*
X23359999Y3429990D03*
G01*
X24765000Y3220008D03*
G01*
X25264999Y3429990D03*
G01*
X26670000Y3220008D03*
G01*
X27169999Y3429990D03*
D12*
G01*
X13538200Y10248900D03*
D11*
G01*
X13538200Y9994900D03*
G01*
X13538200Y9486900D03*
G01*
X13538200Y9232900D03*
G01*
X13538200Y8978900D03*
G01*
X13538200Y8724900D03*
G01*
X13538200Y8470900D03*
G01*
X13538200Y8216900D03*
G01*
X13538200Y7962900D03*
G01*
X13538200Y7708900D03*
G01*
X13538200Y7454900D03*
G01*
X15062200Y7454900D03*
G01*
X15062200Y7708900D03*
G01*
X15062200Y7962900D03*
G01*
X15062200Y8216900D03*
G01*
X15062200Y8470900D03*
G01*
X15062200Y8724900D03*
G01*
X15062200Y8978900D03*
G01*
X15062200Y9232900D03*
G01*
X15062200Y9486900D03*
G01*
X15062200Y9740900D03*
G01*
X15062200Y9994900D03*
G01*
X15062200Y10248900D03*
G01*
X13538200Y9740900D03*
M02*
